<svg width="841" height="834" viewBox="0 0 841 834" fill="none" xmlns="http://www.w3.org/2000/svg">
<path d="M354.397 340.17C354.389 341.247 354.568 341.428 354.387 341.606C351.132 345.174 347.878 348.741 344.623 352.309C344.262 352.666 344.257 353.384 343.893 354.099C343.891 354.458 343.886 355.176 343.527 355.173C342.086 355.882 343.159 356.607 343.691 357.508C346.76 354.836 349.648 352.343 352.715 350.03C355.782 347.718 359.92 346.13 362.452 343.276C364.803 340.599 368.759 339.549 370.038 336.147C370.583 335.254 370.947 334.538 371.669 333.825C372.211 333.29 373.11 333.117 373.652 332.582C374.013 332.225 374.196 331.688 374.379 331.151C373.842 330.968 373.124 330.963 372.587 330.78C372.228 330.778 371.869 330.775 371.513 330.414C374.391 329.356 375.314 325.594 379.441 325.801C380.876 325.81 382.5 324.565 383.584 323.495C385.75 321.715 387.74 319.395 389.549 317.254C390.635 315.825 392.615 314.941 392.811 312.609C392.813 312.25 393.353 312.074 393.892 311.899C397.484 311.564 399.296 309.063 401.642 307.105C403.627 305.503 405.793 303.722 407.6 301.94C407.961 301.583 408.146 300.687 407.792 299.967C409.775 298.724 411.76 297.122 413.923 295.701C416.785 297.156 417.881 294.291 419.683 293.226C422.027 291.627 423.839 289.126 426.358 288.066C428.339 287.182 429.247 285.573 430.69 284.506C431.232 283.971 431.771 283.795 432.67 283.622C433.576 282.372 434.841 281.124 435.566 280.052C435.392 279.153 435.221 277.896 435.402 277.717C436.122 277.363 437.018 277.549 438.095 277.556C438.813 277.561 439.709 277.746 440.249 277.571C442.59 276.33 444.754 274.909 446.917 273.487C447.456 273.311 448.174 273.316 449.073 273.143C449.256 272.606 449.08 272.066 449.442 271.709C452.87 269.04 456.119 266.19 459.726 263.702C463.696 260.498 467.844 257.475 471.992 254.452C473.074 253.741 474.153 253.389 475.054 252.857C477.217 251.436 479.202 249.834 481.368 248.053C481.549 247.875 481.554 247.157 481.556 246.798C482.457 246.266 483.714 246.095 484.256 245.56C484.618 245.203 483.91 243.763 483.38 242.503C484.281 241.971 485.899 241.443 487.162 240.554C487.523 240.198 487.35 239.299 487.352 238.94C489.518 237.16 491.5 235.917 493.485 234.315C495.29 232.891 497.097 231.109 499.082 229.507C498.727 228.786 498.552 228.247 498.022 226.987C499.804 228.794 500.705 228.261 501.789 227.192C503.235 225.765 504.856 224.879 506.301 223.453C507.024 222.74 507.388 222.024 508.11 221.311C509.917 219.529 511.902 217.927 513.531 215.963C514.256 214.891 516.058 213.826 513.919 211.658C512.478 212.367 510.857 213.253 509.414 214.32C507.07 215.92 505.263 217.703 503.097 219.483C501.835 220.372 500.038 220.719 498.597 221.427C498.238 221.424 498.234 222.142 497.694 222.318C497.154 222.494 496.612 223.029 496.075 222.846C494.642 222.477 493.924 222.472 494.989 224.274C495.875 225.895 494.972 226.787 494.249 227.5C491.9 229.817 489.373 231.954 487.025 234.272C486.302 234.985 486.116 235.881 485.391 236.953C484.495 236.767 483.418 236.76 482.163 236.572C482.517 237.292 482.512 238.01 482.867 238.73C482.864 239.089 483.042 239.27 483.04 239.629C481.966 239.263 480.889 239.256 479.814 238.89C479.455 238.887 479.277 238.706 478.918 238.704C479.272 239.424 479.446 240.323 479.976 241.583C479.082 241.038 478.367 240.675 477.292 240.308C478.562 238.343 479.65 236.555 480.92 234.589C480.205 234.226 479.67 233.684 478.954 233.32L478.957 232.961C479.675 232.966 480.214 232.79 480.571 233.151C481.821 234.057 482.363 233.522 483.086 232.809C485.796 230.135 488.506 227.461 491.397 224.609C492.481 223.539 492.849 222.106 493.934 221.036C494.839 219.786 495.923 218.717 496.827 217.825C500.079 214.617 503.331 211.408 506.224 208.197C507.489 206.949 508.221 204.8 508.951 203.01C509.862 201.042 510.951 199.254 511.864 196.927C512.777 194.6 515.477 193.362 517.462 191.76C518.544 191.049 519.626 190.339 520.888 189.45C521.069 189.272 521.249 189.093 521.43 188.915C524.663 188.578 526.648 186.976 528.281 184.295C528.645 183.579 529.902 183.408 530.625 182.695C531.167 182.16 530.994 181.262 531.174 181.083C533.155 180.199 534.774 179.672 536.036 178.783C538.56 177.005 541.266 175.049 543.612 173.091C544.335 172.377 545.238 171.486 546.142 170.595C545.963 170.414 545.787 169.874 545.433 169.154C546.51 169.161 547.226 169.525 547.943 169.53C547.765 169.349 547.587 169.169 547.409 168.988C549.755 167.029 552.28 165.252 554.445 163.471C555.168 162.758 556.072 161.867 556.794 161.154C556.975 160.976 556.977 160.617 557.156 160.797C561.648 159.93 564.72 156.9 568.326 154.411C570.67 152.812 572.833 151.39 574.999 149.61C576.081 148.9 576.806 147.828 577.709 146.936C577.89 146.758 578.073 146.221 578.432 146.223C582.744 145.534 581.518 141.039 582.792 138.355C583.339 137.103 584.245 135.852 585.148 134.961C585.871 134.248 587.131 133.718 588.21 133.366C588.75 133.19 589.287 133.374 589.824 133.557C589.819 134.275 589.995 134.814 589.634 135.171C588.906 136.602 588 137.852 587.095 139.102C587.451 139.464 587.63 139.644 587.986 140.006C589.246 139.476 590.508 138.587 591.768 138.057C595.372 135.927 598.795 133.976 602.043 131.485C604.929 129.351 607.282 126.315 609.812 123.82C610.354 123.285 611.252 123.111 611.972 122.757C612.873 122.225 615.022 122.957 614.138 120.977C615.039 120.445 615.94 119.912 617.381 119.204C615.771 118.296 614.519 117.749 613.447 117.024C612.194 116.477 612.194 116.477 612.922 115.046C616.152 115.068 618.836 116.342 619.349 120.115C618.629 120.469 618.086 121.004 617.366 121.358C617.005 121.714 616.822 122.251 616.46 122.608C616.998 122.791 617.711 123.514 618.07 123.516C619.686 123.348 621.122 123.357 622.382 122.827C624.181 122.121 625.805 120.876 627.426 119.989C629.228 118.925 631.208 118.041 633.01 116.976C633.372 116.619 634.089 116.624 634.092 116.265C634.836 112.322 637.72 110.546 640.247 108.409C641.509 107.521 643.128 106.993 644.21 106.282C645.291 105.572 646.732 104.863 645.667 103.062C650.695 102.736 650.184 98.6049 650.389 94.8372C646.812 93.0184 644.28 95.873 641.052 95.4924C644.116 93.5387 647.183 91.2262 650.247 89.2725C650.608 88.916 652.217 89.8241 652.574 90.1854C655.773 94.8734 656.13 95.2348 660.803 94.1893C661.343 94.0134 662.058 94.3771 662.415 94.7385C665.089 97.4486 667.587 99.6192 671.166 101.079C672.956 101.809 673.318 101.452 672.971 99.6553C673.33 99.6577 674.048 99.6626 674.045 100.022C675.645 102.365 677.979 102.202 679.95 102.753C680.846 102.939 681.927 102.228 682.826 102.055C682.472 101.334 681.759 100.612 681.764 99.8938C681.595 98.2774 681.426 96.661 681.438 94.8663C681.443 94.1484 681.27 93.2499 681.453 92.7127C681.458 91.9948 682 91.46 682.364 90.7445C682.72 91.1059 683.257 91.289 683.792 91.831C684.149 92.1924 684.324 92.7319 684.681 93.0933C687.177 95.6228 686.991 96.5189 684.469 97.9378C685.36 98.8411 686.252 99.7445 687.143 100.648C688.588 99.2218 689.675 97.7933 691.12 96.3672C692.014 96.9116 693.442 97.998 695.23 99.0869C695.247 96.5743 696.512 95.3265 699.564 95.1676C702.435 95.1868 703.707 92.8621 705.868 91.7998C706.049 91.6215 706.054 90.9036 706.239 90.0074C706.774 90.5495 707.13 90.9109 707.128 91.2698C707.111 93.7824 708.552 93.0741 709.631 92.7224C711.968 92.1997 713.594 90.5953 715.22 88.9909C716.665 87.5648 718.467 86.5001 721.334 87.2372C720.614 87.5913 720.072 88.1261 719.171 88.6585C720.423 89.2053 721.139 89.5691 722.032 90.1136C720.765 91.7204 719.688 91.7131 718.262 90.2677C717.906 89.9064 717.01 89.7209 716.648 90.0774C714.846 91.1422 713.403 92.2093 711.418 93.8113C712.312 94.3557 712.847 94.8978 713.384 95.0809C714.813 96.1673 716.063 97.0732 715.692 98.8654C715.506 99.7616 716.036 101.021 717.467 101.749C718.542 102.115 719.433 103.019 720.505 103.744C719.823 98.3548 724.48 99.8219 727.002 98.403C726.636 99.4774 726.451 100.374 726.263 101.629C725.183 101.98 723.926 102.151 722.844 102.862C722.305 103.038 722.119 103.934 722.117 104.293C721.936 104.471 723.008 105.196 723.008 105.196C723.548 105.02 723.731 104.483 724.092 104.127C724.453 103.77 724.634 103.592 724.815 103.414C725.525 104.495 726.238 105.218 726.593 105.938C726.956 105.223 726.961 104.505 727.686 103.433C728.404 103.438 729.488 102.368 730.91 104.531C730.013 104.346 729.476 104.163 728.937 104.339C728.756 104.517 728.756 104.517 728.575 104.695C729.11 105.237 729.642 106.138 730.36 106.143C731.794 106.512 732.866 107.237 733.034 108.853C733.032 109.212 733.923 110.116 734.282 110.118C735.54 109.947 736.797 109.776 738.235 109.427C738.057 109.246 738.059 108.887 738.059 108.887C738.775 109.251 739.669 109.795 740.562 110.34C740.389 109.441 740.213 108.901 740.037 108.362C741.478 107.654 742.528 111.609 743.978 109.465C745.412 109.834 746.845 110.202 748.637 110.573C751.304 114.36 755.956 116.545 760.066 119.265C763.816 121.982 767.748 124.521 770.234 128.487C771.477 130.469 772.18 132.628 773.064 134.608C773.24 135.148 772.879 135.504 772.337 136.039C772.161 135.499 772.166 134.781 771.99 134.242C770.735 134.054 769.48 133.866 767.866 133.676C768.239 131.525 766.461 129 764.31 128.626C763.951 128.624 763.592 128.622 763.414 128.441C760.367 127.882 760.367 127.882 760.704 131.115C757.84 130.019 754.795 129.101 751.93 128.005C751.388 128.54 750.846 129.074 750.482 129.79C751.008 131.768 751.355 133.565 751.88 135.543C751.701 135.362 751.342 135.36 751.164 135.179C750.62 136.073 750.254 137.147 749.709 138.041C748.264 139.467 748.967 141.625 748.237 143.415C747.136 146.997 746.235 147.53 741.222 145.701C741.572 147.139 741.74 148.756 742.27 150.016C743.333 152.177 744.038 153.976 743.665 156.127C743.662 156.486 744.197 157.028 744.554 157.39C745.096 156.855 745.635 156.679 746.178 156.144C745.999 155.964 745.821 155.783 745.821 155.783C746.898 155.79 747.977 155.438 749.234 155.267C748.863 157.06 749.926 159.221 747.592 159.384L747.411 159.563C747.572 162.256 745.228 163.855 745.749 166.551C745.746 166.91 745.741 167.628 746.1 167.63C749.673 170.167 747.146 172.304 746.416 174.094C744.958 177.315 742.429 179.81 740.437 182.489C739.895 183.024 739.355 183.2 738.991 183.915C738.628 184.631 738.086 185.165 738.259 186.064C738.782 188.401 739.663 190.74 740.362 193.616C741.273 191.648 742.002 189.858 743.091 188.071C744 186.461 745.084 185.392 746.348 184.144C747.794 182.718 749.042 183.983 749.569 185.602C750.099 186.861 750.089 188.297 750.439 189.735C751.877 189.386 753.149 187.061 752.262 185.44C751.019 183.457 750.851 181.841 752.299 180.056C752.653 180.776 753.188 181.318 753.183 182.036C753.347 184.371 754.419 185.096 756.399 184.212C756.758 184.214 757.295 184.397 758.01 184.761C757.29 185.115 756.389 185.647 755.31 185.999C755.664 186.719 756.199 187.261 756.016 187.799C755.83 188.695 755.82 190.13 755.462 190.128C753.308 190.114 753.474 192.089 752.568 193.339C750.754 196.199 748.94 199.058 745.522 200.292C742.465 201.168 742.094 202.961 744.045 206.384C744.756 207.466 744.566 209.08 744.917 210.159C745.267 211.597 746.155 212.859 746.505 214.297C746.856 215.377 746.49 216.451 746.842 217.53C747.015 218.429 747.548 219.33 748.261 220.053C749.506 221.676 750.935 222.763 752.539 224.389C750.203 224.911 748.225 225.437 745.888 225.959C746.777 227.222 747.307 228.482 748.196 229.744C746.758 230.093 745.681 230.086 744.794 228.465C743.373 226.301 741.041 226.106 738.533 225.372C739.42 226.993 739.772 228.072 740.301 229.332C741.359 232.211 742.058 235.087 742.937 237.785C743.289 238.864 743.821 239.765 744.71 241.028C741.838 241.008 738.967 240.989 736.095 240.97C736.083 242.765 735.891 244.737 735.876 246.891C735.862 249.045 736.384 251.381 734.402 252.625C733.513 251.362 732.624 250.1 731.557 248.657C728.673 250.432 725.79 252.208 722.547 253.981C723.092 253.087 723.455 252.371 723.819 251.656C722.207 251.107 721.131 251.1 720.584 252.352C719.854 254.142 718.416 254.491 716.621 254.479C714.108 254.462 711.772 254.985 710.321 257.129C709.777 258.023 709.411 259.097 709.223 260.352C704.723 262.296 700.221 264.599 696.07 267.982C693.904 269.762 691.917 271.723 688.503 272.238C686.166 272.761 684.36 274.544 682.555 275.967C680.751 277.391 679.125 278.996 677.677 280.781C677.135 281.315 676.769 282.39 676.405 283.105C676.224 283.284 676.403 283.464 676.403 283.464C673.707 283.984 674.403 287.22 672.955 289.005C671.329 290.609 670.416 292.936 668.971 294.362C667.887 295.432 666.09 295.779 664.652 296.128C663.392 296.658 662.312 297.01 662.659 298.807C662.657 299.166 662.654 299.525 662.474 299.703C661.207 301.31 662.274 302.753 663.158 304.733C664.044 306.354 664.57 308.332 664.916 310.129C665.087 311.387 664.548 311.563 663.29 311.734C662.033 311.905 660.77 312.794 659.511 313.324C659.33 313.502 658.79 313.678 658.79 313.678C658.434 313.316 658.077 312.955 658.08 312.596C657.901 312.415 658.082 312.237 658.084 311.878C657.911 310.98 657.738 310.081 657.742 309.363C656.841 309.896 655.943 310.069 655.042 310.601C653.418 311.847 651.792 313.451 650.525 315.058C649.983 315.593 649.795 316.848 649.429 317.922C648.35 318.274 647.09 318.804 645.469 319.691C645.637 321.307 645.984 323.104 646.15 325.079C645.794 324.718 645.257 324.535 645.078 324.354C644.018 321.835 643.296 322.548 642.209 323.976C640.581 325.939 638.952 327.903 637.324 329.866C636.962 330.223 636.957 330.94 636.594 331.656C636.411 332.193 636.228 332.73 636.047 332.909C634.064 334.152 632.082 335.395 629.918 336.816C630.631 337.539 631.166 338.081 632.058 338.984C630.441 339.153 629.184 339.324 627.748 339.314C627.565 339.851 627.201 340.567 626.837 341.282C626.657 341.46 626.476 341.639 626.295 341.817C624.146 341.085 625.033 342.706 625.385 343.785C623.055 343.231 623.407 344.31 624.293 345.932C621.06 346.269 619.254 348.051 618.16 350.557C618.873 351.28 619.589 351.643 620.302 352.366C619.225 352.359 618.329 352.173 617.252 352.166C617.249 352.525 617.425 353.065 617.42 353.782C613.287 354.652 612.72 358.776 610.372 361.094C609.656 360.73 609.3 360.369 608.762 360.186C608.579 360.723 608.218 361.079 608.216 361.438C608.208 362.515 608.02 363.77 608.013 364.847C607.654 364.845 607.476 364.664 606.939 364.481C607.303 363.765 607.488 362.869 607.671 362.332C607.493 362.151 607.493 362.151 607.315 361.971C606.052 362.86 604.788 364.107 603.525 364.996C603.703 365.177 603.882 365.358 604.06 365.538C604.959 365.365 605.855 365.55 606.753 365.377C606.753 365.377 607.107 366.097 607.462 366.818C604.771 366.62 602.261 366.244 599.926 366.408C598.31 366.577 596.867 367.644 595.245 368.53C598.278 371.243 595.4 372.3 595.029 374.093C595.026 374.452 594.484 374.986 594.663 375.167C596.794 378.412 594.988 380.195 593.54 381.98C592.634 383.23 591.191 384.297 590.105 385.726C587.934 388.224 585.583 390.9 583.234 393.218C583.412 393.398 583.41 393.757 583.41 393.757C584.67 393.227 586.108 392.878 587.727 392.35C586.281 393.776 585.378 394.668 584.294 395.737C583.21 396.807 583.032 396.626 581.972 394.106C580.709 394.995 579.806 395.887 578.724 396.597C579.796 397.322 580.512 397.686 581.406 398.231C581.225 398.409 580.861 399.124 580.683 398.944C579.789 398.399 578.896 397.855 577.824 397.13C572.762 402.48 567.698 408.189 562.456 413.718C562.276 413.896 562.093 414.433 561.734 414.431C558.142 414.766 557.046 417.63 555.056 419.95C553.064 422.629 550.717 424.587 548.369 426.905C546.562 428.688 544.933 430.651 543.305 432.614C542.763 433.149 542.58 433.686 542.038 434.221C539.33 436.536 536.442 439.029 533.734 441.344C533.553 441.523 533.194 441.52 532.476 441.515C533.743 439.908 535.37 438.304 536.817 436.519C535.926 435.616 535.032 435.071 533.784 433.806C533.416 435.24 533.409 436.317 533.221 437.572C529.275 437.186 527.102 440.043 527.971 444.177C528.67 447.053 528.489 447.232 526.509 448.116C526.702 446.143 526.353 444.705 523.845 443.97C523.479 445.044 523.112 446.119 522.925 447.374C522.925 447.374 522.028 447.188 522.026 447.547C521.279 451.85 516.962 453.257 515.322 457.015C515.139 457.552 515.314 458.091 515.131 458.629C516.389 458.458 517.644 458.646 518.364 458.292C518.904 458.116 518.909 457.398 518.914 456.68C519.104 455.066 519.651 453.813 521.624 454.006C521.077 455.259 520.53 456.511 520.161 457.945C519.605 460.633 517.088 461.334 515.64 463.119C514.373 464.726 513.464 466.335 512.019 467.761C511.658 468.118 510.576 468.828 510.219 468.467C507.538 466.834 506.806 468.983 505.541 470.23C504.276 471.478 503.188 473.266 500.504 471.991C499.779 473.063 499.054 474.135 498.688 475.21C498.507 475.388 498.324 475.925 497.965 475.923C495.091 476.262 493.997 478.768 492.906 480.914C492.362 481.808 491.461 482.34 490.56 482.873C488.755 484.296 486.953 485.361 485.506 487.146C487.84 486.982 490.176 486.46 492.691 486.118C493.759 487.561 493.93 488.818 492.665 490.066C491.4 491.314 489.777 492.559 488.868 494.168C487.413 497.03 484.178 497.726 482.369 499.868C479.835 503.082 476.407 505.751 473.516 508.603C472.07 510.029 471.516 512.359 470.071 513.785C468.262 515.926 465.737 517.704 463.75 519.665C463.208 520.2 462.663 521.094 462.121 521.628C460.678 522.696 459.768 524.664 457.26 523.929C457.26 523.929 457.079 524.107 456.718 524.464C457.433 524.828 457.97 525.011 458.688 525.015C458.867 525.196 458.686 525.374 458.864 525.555C457.245 526.083 455.627 526.61 453.827 527.316C453.468 527.314 452.931 527.131 452.574 526.769C450.254 524.779 448.636 525.307 447.901 527.815C447.715 528.711 446.814 529.243 446.27 530.137C445.367 531.028 444.465 531.561 443.74 532.633C443.196 533.526 442.649 534.779 443.182 535.68C443.536 536.4 445.147 536.95 446.222 537.316C446.759 537.499 446.937 537.68 447.653 538.043C443.316 542.322 438.98 546.6 434.463 551.057C433.75 550.334 433.037 549.611 431.789 548.346C430.344 549.773 428.899 551.199 427.453 552.625C427.275 552.444 427.097 552.263 426.74 551.902C427.104 551.187 427.646 550.652 428.193 549.399C427.294 549.573 426.576 549.568 426.396 549.746C424.95 551.172 423.505 552.598 422.235 554.564C420.966 556.53 418.998 555.619 417.022 555.785C417.376 556.506 417.55 557.404 417.726 557.944C416.822 558.835 416.28 559.37 415.738 559.905C414.295 560.972 413.033 561.861 411.768 563.109C410.142 564.713 409.053 566.501 407.605 568.286C407.425 568.464 407.242 569.001 406.883 568.999C404.719 570.42 402.019 571.658 400.749 573.624C399.299 575.768 397.141 576.471 395.336 577.895C394.975 578.252 394.614 578.608 394.43 579.145C393.705 580.217 392.978 581.648 390.831 580.557C391.183 581.636 391.54 581.998 391.716 582.537C389.022 582.699 387.228 582.687 387.565 585.919C387.736 587.177 385.756 588.061 384.672 589.131C381.961 591.804 379.251 594.478 376.722 596.974C376.36 597.331 375.999 597.687 375.46 597.863C375.816 598.224 376.351 598.766 376.707 599.128C373.301 598.567 370.962 599.448 370.938 603.038C370.039 603.211 368.96 603.563 367.7 604.093C365.009 603.895 363.029 604.779 363.381 605.859C359.779 607.629 356.18 609.041 352.759 610.633C350.779 611.517 348.621 612.221 346.819 613.285C345.557 614.174 344.829 615.605 343.923 616.855C343.743 617.034 343.916 617.932 343.911 618.65C344.812 618.118 345.173 617.761 345.713 617.585C345.891 617.766 346.248 618.127 346.426 618.308C345.879 619.561 345.689 621.175 344.786 622.066C343.338 623.851 341.533 625.275 339.727 627.057C337.583 625.607 336.675 627.216 335.591 628.286C334.506 629.356 333.596 631.324 331.093 629.871C330.729 630.587 330.724 631.305 330.182 631.839C328.918 633.087 327.294 634.333 325.851 635.4C325.309 635.935 324.586 636.648 324.581 637.366C324.213 638.799 323.312 639.331 322.052 639.861C320.072 640.745 318.626 642.171 317.359 643.778C319.693 643.614 321.498 642.191 324.897 643.829C326.14 645.812 323.798 647.052 322.89 648.661C321.984 649.912 321.259 650.984 320.175 652.053C319.814 652.41 318.737 652.402 318.376 652.759C316.569 654.542 314.943 656.146 313.136 657.929C311.691 659.355 310.067 660.6 308.619 662.385C307.171 664.17 305.899 666.495 304.273 668.099C302.645 670.063 300.482 671.484 298.675 673.267C298.133 673.801 297.588 674.695 296.868 675.049C295.606 675.938 294.876 677.728 292.549 676.815C292.549 676.815 292.368 676.993 292.185 677.531C292.722 677.714 293.259 677.897 293.618 677.899C293.797 678.08 293.616 678.258 293.794 678.439C292.175 678.966 290.556 679.494 288.757 680.2C288.579 680.019 288.4 679.838 288.222 679.658C290.935 676.625 293.467 673.77 296.36 670.559C294.57 669.829 293.496 669.463 292.766 671.253C292.038 672.684 290.776 673.573 289.87 674.823C288.964 676.073 288.058 677.323 287.153 678.574C285.719 678.205 283.573 677.114 284.088 680.527C284.084 681.245 282.824 681.775 282.101 682.488C281.74 682.845 281.197 683.38 280.836 683.736C279.027 685.878 278.475 687.848 283.132 689.315C283.491 689.318 283.488 689.677 284.026 689.86C280.051 693.782 276.257 697.525 272.282 701.447C271.747 700.905 270.856 700.002 270.145 698.92C268.88 700.168 267.437 701.235 266.172 702.483C265.994 702.302 265.816 702.121 265.638 701.941C266.724 700.512 267.811 699.084 268.716 697.833C268.538 697.653 268.36 697.472 268.36 697.472C266.197 698.893 264.036 699.956 261.692 701.555C261.68 703.35 259.15 705.846 257.715 705.836C256.447 707.443 255.539 709.052 254.274 710.3C252.465 712.442 250.837 714.405 248.849 716.366C247.043 718.148 244.701 719.389 242.894 721.172C241.088 722.954 239.457 725.277 236.583 725.616L236.4 726.153C236.209 727.767 235.487 728.48 232.979 727.746C233.333 728.466 233.687 729.186 233.863 729.726C231.35 729.709 229.734 729.878 230.073 732.752C230.247 733.65 228.985 734.539 228.262 735.252C225.371 738.104 222.3 741.135 219.228 744.165C219.585 744.527 220.3 744.89 220.835 745.433C217.253 744.332 214.728 746.109 215.251 748.446C214.169 749.157 213.446 749.87 212.548 750.043C211.469 750.395 210.394 750.029 209.317 750.022C208.959 750.019 208.6 750.017 208.419 750.195C207.501 753.24 203.921 751.78 202.117 753.204C201.936 753.382 201.756 753.56 201.216 753.736C198.337 754.794 195.458 755.851 192.76 756.731C192.58 756.909 192.043 756.726 190.968 756.36C195.471 754.057 199.792 751.932 203.755 749.805C207.899 747.499 211.686 744.833 215.651 742.347C216.376 741.275 217.101 740.203 218.004 739.311C219.271 737.704 220.717 736.278 221.984 734.672C222.526 734.137 222.353 733.238 222.536 732.701C219.291 734.833 215.868 736.784 212.982 738.919C210.638 740.518 208.472 742.298 205.95 743.717C203.967 744.96 201.806 746.023 199.824 747.266C199.643 747.444 198.749 746.9 197.856 746.355C198.029 747.254 198.027 747.613 198.2 748.511C196.056 747.061 194.271 745.613 192.305 744.344C192.671 743.269 192.496 742.73 190.703 742.359C189.27 741.99 187.841 740.904 186.223 741.431C185.143 741.783 184.064 742.134 183.165 742.308C182.267 742.481 181.368 742.655 180.291 742.648C180.111 742.826 180.287 743.365 180.104 743.903C178.856 742.638 177.791 740.836 176.538 740.289C174.927 739.74 174.019 741.349 174.37 742.428C172.029 743.669 169.865 745.09 167.343 746.509C167.521 746.69 167.697 747.229 168.054 747.591C167.69 748.306 167.507 748.843 167.143 749.559C164.992 749.186 166.437 747.759 165.732 745.96C164.65 746.671 164.108 747.205 163.385 747.918C161.42 746.649 159.776 750.766 156.573 746.796C156.561 748.59 156.553 749.667 156.546 750.744C156.903 751.105 156.9 751.464 157.257 751.826C156.36 751.64 155.286 751.274 154.033 750.727C154.397 750.012 154.58 749.474 155.125 748.581C152.607 749.282 150.629 749.807 148.652 750.332C148.119 749.431 147.587 748.53 147.235 747.451C146.337 747.624 145.797 747.8 144.899 747.974C145.074 748.513 145.25 749.053 145.426 749.593C145.067 749.59 144.889 749.409 144.889 749.409C144.352 749.226 143.099 748.679 143.097 749.038C142.01 750.467 140.582 749.38 139.329 748.834C137.898 748.106 136.467 747.379 135.559 748.988C135.378 749.166 134.301 749.159 133.945 748.797C131.623 747.167 130.719 748.058 129.987 750.207C129.984 750.566 129.445 750.741 129.083 751.098C129.799 751.462 130.514 751.826 131.23 752.189C131.408 752.37 131.044 753.085 130.861 753.623C129.609 753.076 128.187 750.912 127.453 753.42C128.168 753.784 128.884 754.148 130.314 754.875C128.879 754.866 128.339 755.042 127.802 754.858C126.014 753.77 125.113 754.302 124.208 755.552C122.035 758.409 119.684 761.086 116.619 763.039C114.998 763.926 113.731 765.533 112.11 766.419C110.669 767.127 108.877 766.756 107.082 766.744C106.904 766.564 106.906 766.205 106.728 766.024C107.812 764.954 109.074 764.066 109.978 763.174C112.683 761.218 115.388 759.262 117.915 757.125C120.442 754.989 123.148 753.032 125.497 750.715C125.858 750.358 125.865 749.282 125.511 748.561C125.335 748.022 124.441 747.477 123.904 747.294C123.008 747.109 122.109 747.282 121.57 747.458C120.132 747.807 119.228 748.699 117.612 748.867C116.354 749.038 114.743 748.489 113.488 748.301C113.314 747.403 113.141 746.504 112.784 746.143C112.069 745.779 110.994 745.413 110.806 746.668C110.804 747.027 109.368 747.017 108.289 747.369C108.465 747.908 108.46 748.626 108.636 749.166C106.48 749.51 104.326 749.496 102.348 750.021C100.19 750.724 98.3856 752.148 96.5813 753.572C94.5986 754.815 93.1533 756.241 91.349 757.665C90.9876 758.021 90.6262 758.378 90.2649 758.734C89.9035 759.091 89.1831 759.445 88.8218 759.801C88.6435 759.621 88.2871 759.26 88.1088 759.079C89.0122 758.188 90.0963 757.118 90.9997 756.227C92.0837 755.157 93.7049 754.271 94.4325 752.84C94.9769 751.946 94.63 750.149 94.8179 748.894C94.8227 748.176 95.1889 747.101 95.7286 746.926C96.9909 746.037 97.0004 744.601 96.2898 743.519C95.4009 742.257 95.9429 741.722 96.3091 740.648C96.4946 739.751 96.5019 738.675 96.5091 737.598C95.4299 737.95 94.353 737.942 93.6303 738.655C92.727 739.547 92.539 740.802 91.6356 741.693C90.3709 742.941 88.9304 743.649 86.9526 744.174C87.6753 743.461 88.5787 742.57 89.3014 741.857C88.0583 739.874 88.0583 739.874 84.9941 741.828C85.5385 740.934 86.0829 740.041 86.8081 738.969C86.2733 738.426 85.9167 738.065 85.023 737.521C86.4684 736.095 87.9138 734.668 89.3592 733.242C89.5399 733.064 89.9012 732.708 90.0819 732.529C89.3881 728.935 92.2741 726.801 92.4765 723.392C91.048 722.306 90.6963 721.226 91.9634 719.619C93.4112 717.834 93.7871 715.324 94.8783 713.178C95.059 713 94.5242 712.457 94.3459 712.277C93.2643 712.987 92.1826 713.698 91.2792 714.589C90.5565 715.302 90.1904 716.377 89.646 717.271C88.9209 718.343 88.0175 719.234 87.2948 719.947C85.6711 721.193 84.4064 722.44 85.1122 724.24C83.8474 725.488 82.944 726.379 82.0406 727.27C81.6841 726.909 81.3277 726.548 80.7929 726.006C82.4262 723.325 83.8812 720.463 85.3339 717.96C85.5146 717.781 84.9821 716.88 84.628 716.16C85.3435 716.524 86.2397 716.709 87.1334 717.254C87.8609 715.823 88.5884 714.392 89.1377 712.78C89.1401 712.421 88.786 711.701 88.6102 711.162C88.2488 711.518 87.8875 711.875 87.7068 712.053C87.343 712.768 87.3381 713.486 86.9744 714.202C86.6154 714.199 86.6154 714.199 86.2565 714.197C85.9071 712.759 85.199 711.318 84.6715 709.699C85.0304 709.702 85.5675 709.885 85.9265 709.887C85.7506 709.347 85.5749 708.808 85.399 708.268C86.3 707.736 87.2033 706.844 88.6439 706.136C87.3912 705.589 86.6734 705.585 85.5989 705.218C85.6014 704.86 85.9627 704.503 85.9651 704.144C85.7893 703.604 85.4327 703.243 85.0761 702.882C84.7196 702.52 84.18 702.696 83.6428 702.513C84.0041 702.157 84.1873 701.619 84.5486 701.263C84.91 700.906 85.2713 700.55 85.2737 700.191C85.4568 699.654 85.1003 699.292 85.1051 698.575C84.7462 698.572 84.2065 698.748 83.8475 698.745C83.3079 698.921 82.5901 698.916 81.6915 699.09C82.7804 697.302 83.5079 695.871 84.4137 694.621C84.2355 694.441 84.0573 694.26 83.7007 693.899C83.1611 694.074 82.6215 694.25 81.9012 694.604C81.7229 694.424 81.5447 694.243 81.5447 694.243C82.6311 692.815 83.8983 691.208 84.9848 689.779C85.5292 688.885 85.717 687.63 85.9025 686.734C86.4566 684.405 87.3697 682.078 87.7431 679.926C87.931 678.671 86.8637 677.228 87.0516 675.973C87.4251 673.822 87.9768 671.852 88.8874 669.883C89.9883 666.301 91.6265 662.902 92.3685 659.317C93.1057 656.451 93.4839 653.582 92.4288 650.344C92.0746 649.624 92.978 648.732 93.1635 647.836C93.1683 647.118 93.3538 646.222 93.1779 645.683C93.0021 645.143 91.7494 644.596 91.3905 644.594C90.8508 644.77 90.1281 645.483 89.9451 646.02C89.2127 648.169 88.8393 650.32 88.2853 652.649C87.5529 654.798 86.8205 656.947 86.0858 659.455C85.7317 658.734 85.5534 658.554 85.5558 658.195C85.5727 655.682 87.3795 653.9 86.3219 651.021C85.7944 649.402 87.7818 647.441 88.1528 645.649C88.9068 640.27 93.0552 637.246 93.9874 632.048C94.344 632.409 94.5222 632.59 94.8788 632.951C95.958 632.599 97.2155 632.428 97.9382 631.715C98.6609 631.002 98.8488 629.747 99.3932 628.853C100.118 627.781 101.2 627.071 102.103 626.179C102.645 625.645 103.187 625.11 103.551 624.394C104.276 623.322 105.36 622.253 106.085 621.181C108.261 617.965 110.795 614.751 112.97 611.535C114.238 609.928 115.146 608.319 115.878 606.17C110.841 607.931 109.547 613.486 105.045 615.789C107.037 613.111 109.029 610.432 110.663 607.751C112.113 605.607 113.387 602.923 114.838 600.779C115.382 599.885 116.283 599.353 117.006 598.64C117.728 597.927 118.273 597.033 118.995 596.32C121.855 598.134 124.919 596.18 126.75 590.808C125.312 591.158 124.411 591.69 123.332 592.042C123.158 591.143 122.985 590.244 122.99 589.527C122.811 589.346 122.452 589.344 122.274 589.163C121.371 590.054 120.287 591.124 119.383 592.015C119.205 591.834 119.027 591.654 118.848 591.473C120.113 590.225 121.559 588.799 122.823 587.551C122.999 588.091 123.532 588.992 123.888 589.353C124.967 589.001 125.866 588.828 126.408 588.293C127.49 587.583 128.212 586.87 128.937 585.798C129.299 585.441 129.484 584.545 130.024 584.369C131.464 583.661 131.472 582.584 130.229 580.601C133.445 582.777 135.249 581.353 136.694 579.927C138.321 578.322 139.588 576.716 141.035 574.931C141.397 574.574 141.043 573.854 141.048 573.136C140.508 573.312 139.971 573.129 139.609 573.485C137.622 575.446 135.634 577.407 133.466 579.546C132.221 577.923 132.223 577.564 134.023 576.858C136.54 576.157 137.451 574.189 138.725 571.505C137.287 571.854 136.569 571.849 135.849 572.204C134.047 573.268 132.243 574.692 130.619 575.937C128.451 578.077 126.283 580.216 124.474 582.357C121.58 585.569 118.509 588.599 115.794 591.991C112.173 596.633 108.731 601.456 105.11 606.098C104.565 606.992 103.664 607.524 102.942 608.237C102.763 608.057 102.585 607.876 102.585 607.876C103.127 607.341 103.85 606.628 104.033 606.091C104.765 603.942 105.678 601.615 105.515 599.281C105.356 596.228 107.519 594.807 109.497 594.282C111.834 593.759 112.742 592.15 114.187 590.724C117.261 587.334 120.157 583.764 123.231 580.375C126.666 576.629 130.101 572.883 133.539 568.778C134.081 568.243 134.088 567.166 134.449 566.81C134.991 566.275 135.533 565.74 136.073 565.564C137.694 564.678 139.85 564.333 141.115 563.086C143.644 560.59 145.817 557.733 148.169 555.056C148.894 553.984 148.903 552.549 149.807 551.657C151.613 549.875 153.599 548.273 155.586 546.312C156.128 545.777 156.492 545.062 156.858 543.987C156.14 543.982 155.244 543.797 155.241 544.156C154.69 546.126 152.717 545.934 151.454 546.822C150.011 547.89 148.578 547.521 146.974 545.895C149.498 544.117 152.023 542.339 154.189 540.559C155.617 541.646 156.687 542.73 157.935 543.994C160.1 542.214 161.726 540.61 163.533 538.827C163.895 538.471 164.08 537.574 163.724 537.213C163.367 536.852 162.652 536.488 162.114 536.305C161.399 535.941 160.681 535.936 159.966 535.573C160.329 534.857 160.334 534.139 160.876 533.604C163.406 531.109 165.576 528.611 168.284 526.295C169.368 525.226 170.989 524.339 172.608 523.812C174.046 523.462 174.395 524.901 174.388 525.978C174.379 527.413 174.191 528.668 174.359 530.285C179.416 525.652 185.54 522.463 189.348 516.566C189.17 516.385 188.813 516.024 188.816 515.665C186.655 516.727 184.496 517.431 181.977 518.49C180.548 517.404 180.194 516.684 182.362 514.545C186.877 510.447 191.569 506.53 195.903 502.61C196.626 501.897 197.883 501.726 199.143 501.196C199.317 502.095 199.495 502.276 199.495 502.276C196.602 505.487 193.708 508.698 190.815 511.909C189.912 512.8 189.712 515.85 190.247 516.392C195.657 512.48 201.249 508.39 206.659 504.477C209.003 502.878 211.706 501.281 213.337 498.959C214.424 497.53 215.869 496.104 217.134 494.856C217.676 494.321 217.861 493.425 218.225 492.71C219.307 491.999 220.747 491.291 221.292 490.397C222.2 488.788 223.999 488.082 225.264 486.834C227.068 485.41 228.519 483.266 229.251 481.118C230.347 478.253 231.619 475.929 234.322 474.331C234.862 474.156 234.869 473.079 235.413 472.185C237.926 472.202 239.195 470.236 239.752 467.548C239.029 468.261 238.306 468.974 237.405 469.506C236.685 469.86 236.136 471.472 234.71 470.027C236.521 467.526 237.974 465.023 239.605 462.701C239.786 462.523 239.788 462.164 239.966 462.344C242.662 461.824 243.753 459.677 245.565 457.177C246.986 459.34 248.227 461.682 249.648 463.845C246.957 463.648 245.512 465.074 244.777 467.581C244.411 468.656 243.686 469.728 242.604 470.439C241.884 470.793 241.698 471.689 241.513 472.585C250.706 466.724 259.007 459.96 263.204 449.757C263.03 448.859 262.322 447.418 262.683 447.062C263.225 446.527 264.3 446.893 265.198 446.72C265.916 446.724 266.636 446.37 267.896 445.84C270.045 446.573 272.924 445.515 274.017 443.01C274.384 441.935 275.106 441.222 275.651 440.329C275.473 440.148 275.475 439.789 275.297 439.608C274.037 440.138 272.596 440.847 271.336 441.377C271.522 440.48 271.71 439.225 271.717 438.148C271.539 437.968 271.001 437.785 270.823 437.604C269.739 438.674 268.655 439.743 267.39 440.991C267.212 440.81 267.034 440.63 266.856 440.449C268.482 438.845 269.927 437.419 271.553 435.814C271.729 436.354 271.724 437.072 272.073 438.51C274.417 436.91 276.222 435.487 278.026 434.063C278.749 433.35 279.474 432.278 280.197 431.565C281.464 429.958 279.674 429.228 278.248 427.783C279.5 428.33 280.575 428.696 281.471 428.881C282.025 426.552 282.042 424.039 285.099 423.162C286.718 422.635 287.809 420.488 289.076 418.881C288.898 418.701 288.72 418.52 288.544 417.98C287.645 418.154 286.927 418.149 286.207 418.503C284.044 419.924 282.059 421.526 280.074 423.128C278.628 424.555 277.181 426.34 275.735 427.766C275.013 428.479 274.112 429.011 273.567 429.905C271.76 431.688 269.954 433.47 268.325 435.434C266.155 437.932 263.984 440.43 261.813 442.928C262.168 443.648 262.702 444.19 263.057 444.911C262.517 445.086 261.799 445.082 261.259 445.257C260.72 445.433 259.824 445.248 259.462 445.604C258.195 447.211 257.106 448.999 255.839 450.605C256.733 451.15 257.446 451.872 258.161 452.236C257.439 452.949 256.894 453.843 256.172 454.556C255.461 453.474 255.107 452.754 254.574 451.853C252.943 454.175 250.959 455.777 253.266 459.562C252.907 459.56 252.548 459.557 252.189 459.555C251.835 458.834 251.301 458.292 250.768 457.391C250.236 456.49 249.523 455.768 248.812 454.686C250.958 455.777 251.505 454.525 251.696 452.911C251.888 450.938 252.081 448.965 252.274 446.992C252.471 444.301 254.632 443.239 256.61 442.713C259.127 442.012 260.216 440.225 261.662 438.799C265.275 435.234 268.535 430.948 271.97 427.202C275.588 422.919 279.566 418.638 283.184 414.355C283.726 413.82 283.731 413.102 284.095 412.387C284.461 411.312 285.003 410.778 286.26 410.606C289.671 410.45 291.661 408.13 293.47 405.988C295.638 403.849 297.631 401.171 299.442 398.67C299.804 398.313 299.63 397.415 299.992 397.058C300.717 395.986 301.62 395.095 302.521 394.563C302.904 390.976 307.211 391.005 308.307 388.14C307.24 386.697 306.879 387.054 305.795 388.124C304.35 389.55 302.191 390.253 300.211 391.137C299.671 391.313 298.602 390.229 297.349 389.682C300.416 387.369 303.121 385.413 305.826 383.457C309.75 387.073 309.75 387.073 312.641 384.221C313.725 383.151 314.988 382.262 316.072 381.193C316.433 380.836 316.619 379.94 316.443 379.401C316.267 378.861 315.371 378.675 314.833 378.492C313.937 378.307 313.222 377.943 312.326 377.758C312.689 377.042 313.053 376.327 313.595 375.792C316.305 373.118 318.837 370.263 321.547 367.589C322.812 366.341 324.792 365.457 326.411 364.93C327.849 364.58 328.199 366.019 328.191 367.095C328.182 368.531 327.994 369.786 327.625 371.22C327.804 371.4 327.982 371.581 328.16 371.762C330.145 370.16 331.952 368.377 333.756 366.953C335.922 365.173 337.907 363.571 339.894 361.61C341.52 360.006 343.149 358.043 344.597 356.258C344.24 355.896 344.062 355.715 343.705 355.354C341.186 356.414 338.844 357.655 336.144 358.893C334.537 357.626 334.363 356.727 336.168 355.303C339.417 352.454 342.667 349.604 345.917 346.754C347.902 345.152 349.711 343.01 352.055 341.411C351.518 341.228 352.956 340.879 354.397 340.17ZM362.157 601.004C362.335 601.185 362.335 601.185 362.514 601.366C365.397 599.59 368.281 597.815 371.343 596.22C371.706 595.505 372.072 594.43 372.795 593.717C373.879 592.648 374.783 591.756 376.045 590.867C377.671 589.263 378.582 587.295 378.235 585.498C372.817 590.487 367.397 595.835 362.157 601.004ZM350.088 607.564C350.266 607.745 350.444 607.925 350.623 608.106C355.66 606.345 359.452 602.96 362.176 598.133C360.738 598.482 359.119 599.01 357.859 599.54C355.699 600.602 353.181 601.303 354.056 604.719C354.407 605.798 353.682 606.87 352.075 605.603C351.719 605.242 351.36 605.239 351.003 604.878C350.637 605.952 350.273 606.668 350.088 607.564ZM470.683 502.841C472.29 504.108 473.55 503.578 474.277 502.147C475.364 500.718 476.093 498.929 476.999 497.678C477.905 496.428 478.63 495.356 479.358 493.925C475.949 493.723 472.152 497.825 470.683 502.841ZM304.153 659.304C305.943 660.034 306.841 659.861 307.747 658.61C308.475 657.179 309.38 655.929 310.108 654.498C310.833 653.426 311.558 652.354 312.283 651.282C311.927 650.921 311.749 650.74 311.211 650.557C307.969 652.33 304.902 654.643 304.153 659.304ZM451.151 524.965C451.329 525.146 451.685 525.507 451.864 525.688C452.765 525.155 454.381 524.987 454.386 524.269C454.762 521.759 456.742 520.874 458.368 519.27C459.271 518.379 459.996 517.307 460.9 516.415C460.722 516.235 460.365 515.873 460.368 515.514C459.469 515.688 458.211 515.859 457.669 516.394C455.863 518.176 454.234 520.14 452.784 522.284C452.061 522.997 451.695 524.071 451.151 524.965ZM289.433 419.243C286.188 421.375 283.299 423.868 280.943 427.262C284.167 428.361 289.948 422.656 289.433 419.243ZM93.4907 705.989C93.8594 704.556 94.2255 703.482 94.5916 702.407C95.1385 701.154 94.6037 700.612 93.1704 700.244C90.6602 699.868 89.9375 700.581 89.7424 702.913C89.7376 703.631 89.7327 704.349 89.7279 705.067C90.6216 705.611 91.5154 706.156 91.8719 706.517C92.7705 706.343 93.3101 706.168 93.4907 705.989ZM89.6966 709.733C90.2266 710.993 90.5807 711.713 90.9349 712.433C91.1131 712.614 91.472 712.616 91.472 712.616C92.0188 711.364 93.2836 710.116 93.1126 708.858C93.1174 708.141 90.7903 707.228 89.7183 706.503C89.5376 706.681 89.5352 707.04 89.5352 707.04C90.2483 707.762 90.6024 708.483 91.3154 709.205C91.1347 709.384 91.1347 709.384 90.954 709.562C90.4192 709.02 89.8845 708.478 89.3497 707.936C88.8053 708.83 88.2633 709.364 87.8995 710.08C87.8971 710.439 87.8922 711.157 87.8898 711.516C88.4294 711.34 88.7884 711.342 89.1497 710.986C89.3328 710.448 89.3352 710.089 89.6966 709.733ZM552.23 413.111C550.785 414.537 549.522 415.426 548.438 416.496C548.617 416.676 548.617 416.676 548.795 416.857C550.773 416.332 552.57 415.985 555.265 415.464C553.837 414.378 552.946 413.475 552.23 413.111ZM622.352 341.073C621.104 339.808 620.034 338.724 619.309 339.796C618.767 340.331 618.936 341.947 619.292 342.308C621.075 344.115 621.092 341.603 622.352 341.073ZM602.487 359.246C604.812 360.518 606.252 359.81 605.91 357.295C605.014 357.109 604.299 356.745 603.581 356.741C603.217 357.456 602.853 358.172 602.487 359.246ZM300.839 404.423C300.661 404.242 300.305 403.881 300.307 403.522C299.406 404.054 298.146 404.584 297.245 405.116C297.065 405.295 297.238 406.193 297.416 406.374C297.773 406.735 298.669 406.921 298.85 406.743C299.392 406.208 300.117 405.136 300.839 404.423ZM149.575 559.373C149.397 559.193 149.219 559.012 148.862 558.651C147.961 559.183 146.882 559.535 145.981 560.067C145.801 560.245 145.796 560.963 146.152 561.325C146.509 561.686 147.405 561.871 147.586 561.693C148.308 560.98 149.031 560.267 149.575 559.373ZM610.261 350.863C610.08 351.041 609.9 351.219 609.719 351.398C610.615 351.583 611.511 351.768 612.407 351.954C612.056 350.875 611.704 349.796 611.174 348.536C610.993 348.714 610.815 348.533 610.634 348.712C610.629 349.429 610.446 349.967 610.261 350.863ZM257.403 458.333C257.581 458.514 257.759 458.695 258.116 459.056C259.378 458.167 260.46 457.457 261.544 456.387C261.365 456.206 261.009 455.845 260.831 455.664C259.747 456.734 258.665 457.444 257.403 458.333Z" fill="#F3EDE9"/>
<path d="M124.822 770.992C125.908 769.563 126.633 768.491 127.178 767.597C127.361 767.06 127.366 766.342 127.73 765.627C127.012 765.622 126.118 765.077 125.578 765.253C123.42 765.957 121.44 766.841 119.281 767.544C117.662 768.072 115.865 768.419 115.494 770.211C115.314 770.389 114.237 770.382 114.239 770.023C114.063 769.483 113.531 768.582 114.071 768.407C115.516 766.98 117.32 765.557 118.944 764.311C119.296 765.391 119.647 766.47 121.449 765.405C123.071 764.519 125.046 764.352 126.486 763.644C127.927 762.936 129.014 761.507 130.276 760.618C131.902 759.014 133.528 757.41 135.154 755.805C136.758 757.431 137.652 757.976 138.56 756.367C138.924 755.651 140.541 755.482 141.083 754.948C142.169 753.519 142.721 751.549 145.407 752.464C145.585 752.645 145.949 751.929 146.13 751.751C146.843 752.474 147.558 752.837 148.271 753.56C147.368 754.451 146.286 755.162 145.563 755.875C143.94 757.121 142.316 758.366 141.051 759.614C140.69 759.97 141.042 761.05 140.859 761.587C140.143 761.223 139.606 761.04 138.71 760.855C138.524 761.751 138.339 762.647 138.151 763.902C135.821 763.348 134.552 765.314 133.282 767.279C132.196 768.708 130.753 769.775 129.31 770.842C127.686 772.088 126.062 773.333 124.258 774.757C122.996 775.646 121.733 776.535 120.29 777.602C119.418 773.827 122.671 770.618 124.822 770.992Z" fill="#F3EDE9"/>
<path d="M101.291 613.431C98.0607 613.409 97.3284 615.558 96.4153 617.885C96.0468 619.318 94.7844 620.207 93.8787 621.458C91.1565 625.926 88.6149 630.217 86.071 634.866C83.7102 638.978 81.7083 643.093 79.3475 647.205C78.6513 643.97 80.6435 641.291 80.128 637.877C79.7908 634.644 82.6816 631.792 83.4211 628.566C84.1607 625.341 87.579 624.107 88.6775 620.884C91.5491 620.903 92.8235 618.22 93.1994 615.71C93.5752 613.2 95.5602 611.598 96.2925 609.449C96.4756 608.911 97.5549 608.56 97.7331 608.74C98.2703 608.924 98.8026 609.824 99.1568 610.545C100.05 611.089 100.761 612.171 101.291 613.431Z" fill="#F3EDE9"/>
<path d="M59.3622 710.068C59.9307 705.584 61.5545 704.339 64.7729 706.155C64.9608 704.9 65.3269 703.826 65.1559 702.568C64.809 700.771 66.6037 700.783 67.3288 699.711C67.8756 698.459 68.9597 697.389 69.8655 696.139C71.2989 696.507 72.0095 697.589 71.4627 698.842C70.1835 702.243 68.726 705.464 67.2685 708.685C66.9048 709.4 66.7193 710.296 66.7121 711.373C66.8687 714.784 63.9851 716.56 63.2479 719.427C63.0648 719.964 63.06 720.682 62.6938 721.756C64.3151 720.87 65.0378 720.156 66.1194 719.446C66.2977 719.626 66.6543 719.988 66.8325 720.169C64.8403 722.847 63.0261 725.707 61.0339 728.386L60.675 728.383C60.8629 727.128 60.6942 725.512 61.2387 724.618C62.6889 722.474 61.8049 720.494 60.3812 718.689C60.9449 714.924 63.8332 712.431 62.0699 707.753C61.1665 708.644 60.4438 709.357 59.3622 710.068Z" fill="#F3EDE9"/>
<path d="M769.969 141.228C770.494 143.206 772.469 143.039 773.905 143.049C773.715 144.663 774.064 146.101 773.52 146.995C772.795 148.067 771.354 148.775 770.092 149.664C769.913 149.483 770.27 149.845 770.624 150.565C769.364 151.095 767.933 150.368 766.69 148.385C765.982 146.944 765.623 146.942 764.544 147.294C762.385 147.997 759.516 147.619 757.534 148.862C755.732 149.927 753.932 150.632 751.42 150.616C751.593 151.514 751.588 152.232 751.937 153.67C750.868 152.586 749.974 152.042 749.261 151.319C749.622 150.963 749.984 150.606 750.704 150.252C753.947 148.479 757.367 146.886 760.61 145.113C760.256 144.393 759.902 143.673 759.372 142.413C764.551 146.217 767.08 143.721 769.969 141.228Z" fill="#F3EDE9"/>
<path d="M496.157 210.642C491.638 215.457 487.299 220.094 482.96 224.732C481.334 226.336 481.334 226.336 482.226 227.239C481.325 227.772 480.246 228.124 479.164 228.834C476.1 230.788 473.216 232.563 469.974 234.336C469.974 234.336 469.795 234.156 469.436 234.153C472.146 231.479 474.857 228.805 477.386 226.31C481.722 222.031 486.059 217.753 490.217 213.294C491.843 211.69 493.466 210.444 496.157 210.642Z" fill="#F3EDE9"/>
<path d="M602.019 81.5899C601.655 82.3054 601.111 83.199 601.106 83.9169C601.438 87.8677 599.803 90.9079 598.345 94.1287C597.981 94.8442 596.187 94.8321 595.11 94.8249C594.751 94.8225 593.684 93.3794 593.686 93.0205C594.243 90.3321 594.977 87.8243 596.071 85.3189C596.437 84.2445 597.341 83.3532 598.066 82.2812C599.152 80.8527 600.769 80.6841 602.019 81.5899Z" fill="#F3EDE9"/>
<path d="M392.856 305.789C394.67 302.93 395.94 300.964 397.031 298.818C398.12 297.03 401.365 294.898 402.977 295.447C403.704 294.017 404.073 292.583 404.803 290.793C405.689 292.415 406.222 293.316 407.111 294.578C406.749 294.934 406.566 295.472 406.027 295.648C403.868 296.351 403.675 298.324 402.767 299.933C402.406 300.29 402.223 300.827 401.861 301.183C399.698 302.605 397.535 304.026 395.013 305.445C394.651 305.801 393.933 305.797 392.856 305.789Z" fill="#F3EDE9"/>
<path d="M419.122 269.89C418.939 270.428 418.577 270.784 418.575 271.143C419.447 274.918 417.455 277.597 416.718 280.464C416.349 281.897 415.27 282.249 413.658 281.699C413.121 281.516 412.051 280.432 412.054 280.073C412.608 277.744 413.343 275.236 413.897 272.907C414.263 271.832 414.988 270.76 415.891 269.869C416.614 269.156 417.691 269.163 418.59 268.99C418.946 269.351 418.944 269.71 419.122 269.89Z" fill="#F3EDE9"/>
<path d="M778.509 98.9282C777.422 100.357 776.516 101.607 775.43 103.036C774.524 104.286 773.44 105.355 772.178 106.244C771.816 106.601 770.383 106.232 769.848 105.69C768.42 104.604 768.434 102.45 769.518 101.381C772.228 98.7066 775.466 97.6514 778.509 98.9282Z" fill="#F3EDE9"/>
<path d="M633.309 99.2095C635.077 103.17 634.35 104.601 631.112 105.656C629.134 106.181 627.152 107.424 625.352 108.13C624.813 108.306 623.733 108.657 623.199 108.115C619.624 105.938 618.725 106.111 616.376 108.429C616.015 108.785 615.475 108.961 614.936 109.137C615.119 108.6 615.124 107.882 615.485 107.525C616.567 106.815 617.651 105.745 618.911 105.215C619.45 105.039 620.525 105.405 621.24 105.769C623.028 106.858 624.458 107.585 625.906 105.8C626.631 104.728 628.428 104.381 629.332 103.49C630.235 102.599 630.601 101.524 631.327 100.452C632.047 100.098 632.767 99.7443 633.309 99.2095Z" fill="#F3EDE9"/>
<path d="M591.91 116.879C591.197 116.157 590.306 115.253 589.593 114.53C591.759 112.75 593.744 111.148 595.729 109.546C595.909 109.368 597.34 110.096 597.338 110.454C597.504 112.43 597.311 114.403 597.119 116.376C597.116 116.735 596.22 116.549 595.861 116.547C594.604 116.718 593.346 116.889 591.91 116.879Z" fill="#F3EDE9"/>
<path d="M602.527 112.822C605.567 114.458 606.299 112.309 607.208 110.7C607.752 109.806 608.294 109.272 609.903 110.18C611.153 111.086 611.149 111.804 610.604 112.697C610.06 113.591 610.053 114.668 609.508 115.562C608.783 116.634 607.88 117.525 606.275 115.899C605.919 115.537 604.842 115.53 604.3 116.065C603.218 116.776 601.956 117.665 600.696 118.195C600.354 115.68 604.3 116.065 602.527 112.822Z" fill="#F3EDE9"/>
<path d="M77.1675 704.623C80.5617 706.979 80.3665 709.311 77.4757 712.164C76.3916 713.233 75.31 713.944 75.2956 716.097C75.2907 716.815 75.2763 718.969 72.942 719.133C71.8652 719.125 71.1352 720.915 70.4125 721.628C69.8704 722.163 69.5067 722.879 68.4275 723.23C69.155 721.8 69.8826 720.369 70.7884 719.118C72.0579 717.153 73.6863 715.189 74.0622 712.679C74.4307 711.246 75.5149 710.176 76.4207 708.926C77.6854 707.678 78.7694 706.608 77.1675 704.623Z" fill="#F3EDE9"/>
<path d="M654.043 85.1698C652.988 81.9321 657.837 81.4263 655.168 77.9983C656.963 78.0103 658.933 78.562 658.23 76.4036C659.495 75.1557 660.579 74.0861 661.663 73.0165C662.186 75.3532 662.532 77.1503 660.547 78.7523C658.384 80.1736 657.112 82.4984 655.305 84.281C654.946 84.2786 654.585 84.635 654.043 85.1698Z" fill="#F3EDE9"/>
<path d="M607.743 378.306C606.478 379.554 605.394 380.623 604.13 381.871C603.043 383.3 602.137 384.55 601.051 385.979C600.69 386.335 599.974 385.971 599.434 386.147C599.256 385.966 599.078 385.786 598.9 385.605C600.533 382.924 601.988 380.062 603.98 377.383C604.525 376.49 606.32 376.502 608.478 375.798C608.29 377.053 608.285 377.771 608.1 378.667C608.278 378.848 607.921 378.487 607.743 378.306Z" fill="#F3EDE9"/>
<path d="M202.393 498.347C201.692 495.829 200.991 493.312 200.471 490.616C201.728 490.445 202.805 490.452 203.884 490.101C205.503 489.573 206.753 490.479 206.204 492.09C205.65 494.42 204.381 496.386 203.289 498.532C203.289 498.532 202.93 498.53 202.393 498.347Z" fill="#F3EDE9"/>
<path d="M760.097 114.599C759.572 112.621 759.225 110.824 758.881 108.668C759.242 108.311 759.962 107.957 760.866 107.066C761.94 107.432 763.552 107.981 765.342 108.711C764.8 109.246 764.257 109.781 763.894 110.496C763.53 111.212 763.525 111.93 763.161 112.645C763.699 112.828 764.236 113.011 764.592 113.373C764.412 113.551 764.59 113.732 764.409 113.91C763.157 113.363 761.723 112.994 760.471 112.448C760.292 112.267 759.933 112.264 759.755 112.084C760.109 112.804 760.642 113.705 760.996 114.425C760.993 114.784 760.456 114.601 760.097 114.599Z" fill="#F3EDE9"/>
<path d="M445.37 263.247C445.912 262.712 446.276 261.996 446.637 261.64C445.924 260.917 445.39 260.375 444.677 259.652C445.219 259.118 445.939 258.764 446.122 258.226C446.852 256.436 448.459 257.704 449.533 258.07C450.07 258.253 450.6 259.513 450.774 260.411C450.947 261.31 451.121 262.208 451.113 263.285C449.682 262.558 447.538 261.108 447.695 264.519C446.801 263.974 446.264 263.791 445.37 263.247Z" fill="#F3EDE9"/>
<path d="M61.0637 643.852C60.541 641.515 59.84 638.997 59.3172 636.661C60.7554 636.311 62.1912 636.321 63.6293 635.972C66.2961 639.759 62.338 641.168 61.9622 643.678C61.6008 644.035 61.242 644.032 61.0637 643.852Z" fill="#F3EDE9"/>
<path d="M401.785 579.733C399.465 577.743 401.983 577.042 402.527 576.149C403.794 574.542 405.598 573.118 407.222 571.873C408.304 571.162 409.564 570.632 410.633 571.716C407.564 574.388 404.854 577.062 401.785 579.733Z" fill="#F3EDE9"/>
<path d="M366.328 327.328C367.596 325.721 369.041 324.295 370.128 322.867C370.853 321.795 371.219 320.72 373.011 321.091C373.907 321.277 374.989 320.566 376.608 320.038C375.341 321.645 374.613 323.076 373.527 324.505C371.913 324.314 370.113 325.02 368.846 326.627C368.118 328.058 367.041 328.051 366.328 327.328Z" fill="#F3EDE9"/>
<path d="M721.517 86.7C725.292 85.8279 728.522 85.8496 731.926 86.7698C732.104 86.9505 731.924 87.1288 732.102 87.3095C731.743 87.3071 731.206 87.1239 730.847 87.1215C730.307 87.2974 729.948 87.295 729.409 87.4708C729.943 88.0129 730.297 88.7331 730.654 89.0945C731.548 89.6389 732.622 90.0051 733.697 90.3713C733.694 90.7302 733.513 90.9085 733.511 91.2675C729.572 89.8052 725.993 88.3454 721.517 86.7Z" fill="#F3EDE9"/>
<path d="M66.4858 718.371C69.0274 714.081 70.6752 709.246 74.6428 706.401C71.7472 709.971 71.8844 716.254 66.4858 718.371Z" fill="#F3EDE9"/>
<path d="M557.618 145.365C554.559 146.601 552.742 149.82 548.081 149.07C550.786 147.114 552.952 145.334 555.296 143.735C555.657 143.378 556.908 144.284 557.623 144.648C557.801 144.828 557.799 145.187 557.618 145.365Z" fill="#F3EDE9"/>
<path d="M217.567 483.731C216.844 484.444 216.122 485.157 215.758 485.873C215.575 486.41 215.927 487.489 215.919 488.566C213.419 486.754 211.8 487.282 209.805 490.32C209.268 490.137 208.733 489.595 208.018 489.231C208.199 489.053 208.379 488.874 208.56 488.696C209.461 488.164 210.362 487.631 210.904 487.097C211.807 486.205 212.356 484.594 213.257 484.061C214.158 483.529 215.951 483.9 217.567 483.731Z" fill="#F3EDE9"/>
<path d="M242.306 728.526C240.343 726.898 242.143 726.192 242.865 725.479C246.484 721.196 248.464 720.312 250.071 721.579C247.722 723.896 245.014 726.211 242.306 728.526Z" fill="#F3EDE9"/>
<path d="M74.4552 680.914C73.3856 679.83 73.5686 679.293 74.472 678.401C75.9198 676.616 77.0111 674.47 78.2831 672.145C78.6444 671.789 78.8276 671.252 78.83 670.893C80.6175 671.981 80.6054 673.776 79.16 675.202C77.7121 676.987 76.0836 678.951 74.4552 680.914Z" fill="#F3EDE9"/>
<path d="M76.885 719.877C75.6203 721.125 74.7169 722.016 73.8135 722.908C73.8135 722.908 74.5266 723.63 74.8831 723.992C73.0788 725.415 71.0938 727.017 69.2895 728.441C69.2895 728.441 68.9329 728.08 69.2942 727.723C70.2024 726.114 71.2889 724.685 72.3753 723.257C72.9198 722.363 73.2836 721.648 73.6498 720.573C74.1966 719.321 75.271 719.687 76.885 719.877Z" fill="#F3EDE9"/>
<path d="M752.754 138.959C756.864 141.678 757.967 137.737 760.487 136.677C761.371 138.657 760.824 139.91 759.203 140.797C756.319 142.572 756.319 142.572 752.754 138.959Z" fill="#F3EDE9"/>
<path d="M563.798 427.726C561.808 430.046 559.818 432.366 558.009 434.508C557.831 434.327 557.653 434.146 557.474 433.966C558.925 431.822 560.197 429.497 561.828 427.175C562.189 426.818 563.266 426.825 563.805 426.649C563.803 427.008 563.801 427.367 563.798 427.726Z" fill="#F3EDE9"/>
<path d="M104.962 761.705C106.407 760.279 108.034 758.674 109.66 757.07C110.194 757.612 110.908 758.335 110.724 758.872C110.541 759.409 109.999 759.944 109.279 760.298C108.376 761.189 107.475 761.722 106.393 762.432C106.032 762.789 105.316 762.425 104.957 762.423C105.319 762.066 105.14 761.885 104.962 761.705Z" fill="#F3EDE9"/>
<path d="M541.946 447.861C543.025 447.509 544.105 447.157 545.184 446.805C544.989 449.137 541.007 454.136 539.751 453.948C540.481 452.158 541.392 450.19 542.303 448.222C542.303 448.222 542.124 448.041 541.946 447.861Z" fill="#F3EDE9"/>
<path d="M389.954 310.436C386.731 309.338 387.605 312.754 385.805 313.459C385.266 313.635 384.904 313.992 384.367 313.809C384.008 313.806 383.832 313.267 383.476 312.905C383.837 312.549 384.196 312.551 384.558 312.195C385.28 311.482 386.005 310.41 386.728 309.697C387.819 307.55 387.819 307.55 389.954 310.436Z" fill="#F3EDE9"/>
<path d="M452.564 261.141C454.021 257.92 454.561 257.745 457.601 259.38C456.866 261.888 455.787 262.24 452.564 261.141Z" fill="#F3EDE9"/>
<path d="M234.63 455.129C236.261 452.807 237.001 449.581 240.058 448.705C238.073 450.307 238.046 454.255 234.63 455.129Z" fill="#F3EDE9"/>
<path d="M159.295 769.069C161.458 767.648 163.262 766.224 165.426 764.803C165.604 764.984 165.782 765.164 165.96 765.345C165.235 766.417 164.51 767.489 163.428 768.2C162.347 768.91 161.087 769.44 159.827 769.97C159.649 769.79 159.651 769.431 159.295 769.069Z" fill="#F3EDE9"/>
<path d="M366.363 616.109C367.093 614.319 367.823 612.529 368.555 610.38C369.095 610.204 369.993 610.031 370.714 609.677C370.877 612.011 367.44 616.116 366.363 616.109Z" fill="#F3EDE9"/>
<path d="M228.94 473.936C227.675 475.184 226.95 476.256 226.047 477.147C225.685 477.504 225.146 477.68 224.787 477.677C224.606 477.856 224.252 477.135 224.074 476.955C224.435 476.598 224.975 476.422 225.155 476.244C225.878 475.531 226.601 474.818 226.967 473.743C227.704 470.877 228.586 473.216 228.94 473.936Z" fill="#F3EDE9"/>
<path d="M95.9499 767.387C97.5712 766.501 99.3707 765.795 101.351 764.911C101.878 766.53 102.408 767.79 102.938 769.05C100.435 767.597 98.4745 765.61 96.4775 769.006C96.1233 768.286 96.1258 767.927 95.9499 767.387Z" fill="#F3EDE9"/>
<path d="M713.807 272.588C710.57 273.643 712.692 278.323 709.273 279.557C709.827 277.227 710.198 275.435 710.75 273.465C711.116 272.39 712.02 271.499 713.807 272.588Z" fill="#F3EDE9"/>
<path d="M381.92 597.906C383.009 596.119 383.92 594.151 385.009 592.363C385.372 591.648 386.1 590.217 387.704 591.843C385.895 593.985 384.086 596.126 382.277 598.268C382.099 598.087 382.099 598.087 381.92 597.906Z" fill="#F3EDE9"/>
<path d="M440.283 272.545C442.449 270.765 444.255 268.983 446.602 267.024C446.416 267.92 446.59 268.819 446.228 269.175C444.783 270.601 443.337 272.027 441.714 273.273C441.714 273.273 440.998 272.909 440.283 272.545Z" fill="#F3EDE9"/>
<path d="M592.215 392.201C593.123 390.592 593.672 388.98 594.937 387.732C595.84 386.841 597.271 387.568 597.085 388.465C595.459 390.069 594.195 391.317 592.93 392.565C592.93 392.565 592.571 392.562 592.215 392.201Z" fill="#F3EDE9"/>
<path d="M73.6478 667.448C73.4695 667.267 72.7564 666.544 72.224 665.643C72.9443 665.289 73.3057 664.933 73.6671 664.576C76.1628 667.106 74.7126 669.25 74.6981 671.403C74.3392 671.401 74.1609 671.22 73.9803 671.398C73.9875 670.322 73.9947 669.245 73.6478 667.448Z" fill="#F3EDE9"/>
<path d="M465.281 238.253C466.726 236.827 467.81 235.758 469.075 234.51C469.605 235.77 470.137 236.671 470.491 237.391C468.875 237.56 467.258 237.728 465.281 238.253Z" fill="#F3EDE9"/>
<path d="M428.746 280.006C427.125 280.892 426.224 281.425 424.964 281.955C424.431 281.054 423.899 280.153 423.904 279.435C423.906 279.076 424.807 278.544 425.525 278.548C426.421 278.734 427.315 279.278 428.746 280.006Z" fill="#F3EDE9"/>
<path d="M475.666 241.913C474.047 242.44 472.789 242.611 471.171 243.139C471.9 241.349 472.267 240.275 472.816 238.663C473.707 239.566 474.599 240.47 475.666 241.913Z" fill="#F3EDE9"/>
<path d="M416.486 288.18C415.778 286.739 415.246 285.838 414.894 284.759C415.255 284.402 415.617 284.046 416.159 283.511C417.052 284.055 417.765 284.778 418.659 285.322C417.934 286.394 417.211 287.108 416.486 288.18Z" fill="#F3EDE9"/>
<path d="M617.398 89.9492C617.215 90.4864 617.029 91.3826 616.67 91.3802C615.056 91.1899 613.625 90.4623 612.011 90.272C612.014 89.913 612.016 89.5541 612.018 89.1952C613.635 89.0265 615.249 89.2168 616.865 89.0482C617.041 89.5878 617.219 89.7685 617.398 89.9492Z" fill="#F3EDE9"/>
<path d="M421.051 276.544C421.774 275.831 422.318 274.937 423.039 274.583C423.578 274.407 424.294 274.771 424.831 274.954C425.009 275.135 425.002 276.212 424.821 276.39C423.913 277.999 422.656 278.17 421.051 276.544Z" fill="#F3EDE9"/>
<path d="M91.1182 604.927C90.0534 603.125 92.2312 599.55 94.9292 598.671C93.6597 600.637 92.3901 602.602 91.1182 604.927Z" fill="#F3EDE9"/>
<path d="M719.288 258.266C721.415 262.229 721.405 263.665 719.064 264.905C719.078 262.752 719.092 260.598 719.288 258.266Z" fill="#F3EDE9"/>
<path d="M757.637 160.17C756.572 158.368 755.686 156.747 754.799 155.125C757.666 155.862 758.738 156.588 757.637 160.17Z" fill="#F3EDE9"/>
<path d="M618.782 364.919C620.049 363.312 621.316 361.706 623.123 359.923C623.301 360.104 624.016 360.467 624.551 361.009C622.566 362.611 621.121 364.038 619.316 365.461C618.96 365.1 618.96 365.1 618.782 364.919Z" fill="#F3EDE9"/>
<path d="M763.542 136.159C761.742 136.865 761.036 135.066 759.786 134.16C760.15 133.444 760.514 132.729 760.877 132.013C761.766 133.276 762.475 134.716 763.542 136.159Z" fill="#F3EDE9"/>
<path d="M428.584 277.313C429.839 277.501 431.094 277.688 432.35 277.876C432.708 277.879 433.063 278.599 433.06 278.958C433.058 279.317 432.696 279.673 432.696 279.673C431.263 279.305 430.01 278.758 428.399 278.209C428.22 278.028 428.223 277.669 428.584 277.313Z" fill="#F3EDE9"/>
<path d="M682.632 291.224C681.185 293.009 679.918 294.615 678.648 296.581C678.47 296.401 678.291 296.22 678.113 296.039C679.561 294.254 680.65 292.467 682.098 290.682C682.095 291.041 682.454 291.043 682.632 291.224Z" fill="#F3EDE9"/>
<path d="M450.082 256.458C451.882 255.752 453.501 255.225 454.941 254.516C455.283 257.031 453.845 257.381 450.082 256.458Z" fill="#F3EDE9"/>
<path d="M77.0423 643.062C76.4955 644.314 75.9486 645.567 75.4042 646.461C75.2259 646.28 74.867 646.278 74.6887 646.097C74.6984 644.661 75.067 643.228 75.2573 641.614C76.151 642.158 76.5075 642.519 77.0423 643.062Z" fill="#F3EDE9"/>
<path d="M52.8 725.1C53.5323 722.951 54.0816 721.339 54.6309 719.728C56.0546 721.532 55.3246 723.322 52.8 725.1Z" fill="#F3EDE9"/>
<path d="M562.253 150.063C561.364 148.801 560.297 147.358 559.408 146.095C559.589 145.917 559.769 145.739 560.128 145.741C561.196 147.184 562.265 148.268 563.332 149.711C562.973 149.709 562.612 150.065 562.253 150.063Z" fill="#F3EDE9"/>
<path d="M223.605 760.527C221.984 761.414 220.184 762.12 218.563 763.006C218.385 762.825 218.206 762.645 218.209 762.286C219.83 761.399 221.451 760.513 223.073 759.626C223.429 759.988 223.427 760.347 223.605 760.527Z" fill="#F3EDE9"/>
<path d="M566.595 412.13C566.424 410.873 565.892 409.972 566.073 409.794C566.795 409.081 567.875 408.729 568.775 408.197C568.954 408.377 569.132 408.558 569.13 408.917C568.585 409.811 567.862 410.524 566.595 412.13Z" fill="#F3EDE9"/>
<path d="M271.397 432.403C272.478 431.692 273.563 430.623 274.644 429.912C274.822 430.093 275.001 430.274 275.179 430.454C274.276 431.346 273.192 432.415 272.288 433.306C271.751 433.123 271.753 432.764 271.397 432.403Z" fill="#F3EDE9"/>
<path d="M718.566 98.5258C718.033 97.6248 717.499 97.0828 716.964 96.5408C717.144 96.3625 717.144 96.3625 717.325 96.1842C718.578 96.7311 720.011 97.0997 721.444 97.4683C720.365 97.82 719.645 98.1741 718.566 98.5258Z" fill="#F3EDE9"/>
<path d="M458.957 244.493C460.222 243.245 461.486 241.997 462.751 240.749C462.929 240.93 463.107 241.11 463.286 241.291C462.021 242.539 460.756 243.787 459.492 245.035C459.313 244.854 459.135 244.673 458.957 244.493Z" fill="#F3EDE9"/>
<path d="M94.898 630.08C96.0013 626.138 96.3627 625.782 98.3308 626.692C97.4274 627.584 96.3434 628.653 94.898 630.08Z" fill="#F3EDE9"/>
<path d="M380.73 614.769C378.928 615.834 376.948 616.718 375.146 617.783C374.968 617.602 374.79 617.422 374.79 617.422C376.592 616.357 378.574 615.114 380.376 614.049C380.376 614.049 380.555 614.23 380.73 614.769Z" fill="#F3EDE9"/>
<path d="M648.077 332.092C646.995 332.803 645.733 333.691 644.651 334.402C644.473 334.221 644.295 334.041 643.938 333.679C645.02 332.969 646.104 331.899 647.186 331.189C647.542 331.55 647.899 331.911 648.077 332.092Z" fill="#F3EDE9"/>
<path d="M174.308 751.761C174.85 751.226 175.213 750.511 175.755 749.976C176.29 750.518 176.825 751.06 177.894 752.144C176.637 752.315 175.56 752.308 174.483 752.3C174.483 752.3 174.486 751.941 174.308 751.761Z" fill="#F3EDE9"/>
<path d="M73.6188 671.755C72.5419 671.748 71.8241 671.743 70.9255 671.916C71.1134 670.661 71.2965 670.124 71.6675 668.332C72.3757 669.772 72.9081 670.673 73.6188 671.755Z" fill="#F3EDE9"/>
<path d="M440.116 270.57C438.861 270.382 437.787 270.016 436.532 269.828C436.534 269.469 436.537 269.11 436.537 269.11C437.792 269.298 439.047 269.486 440.302 269.674C440.121 269.852 440.119 270.211 440.116 270.57Z" fill="#F3EDE9"/>
<path d="M362.157 601.004C367.396 595.835 372.817 590.487 378.056 585.317C378.403 587.114 377.492 589.082 375.866 590.687C374.782 591.756 373.701 592.467 372.617 593.536C371.894 594.249 371.528 595.324 371.164 596.039C368.28 597.815 365.219 599.41 362.335 601.185L362.157 601.004Z" fill="#F3EDE9"/>
<path d="M350.088 607.564C350.273 606.668 350.637 605.952 350.822 605.056C351.179 605.417 351.716 605.601 351.894 605.781C353.501 607.048 354.046 606.155 353.875 604.897C352.822 601.301 355.517 600.78 357.678 599.718C359.119 599.01 360.379 598.48 361.995 598.311C359.449 603.319 355.66 606.345 350.442 608.284C350.444 607.925 350.266 607.745 350.088 607.564Z" fill="#F3EDE9"/>
<path d="M470.683 502.841C472.152 497.825 475.949 493.723 479.358 493.925C478.452 495.175 477.727 496.247 476.999 497.678C476.091 499.288 475.363 500.718 474.277 502.147C473.73 503.4 472.47 503.93 470.683 502.841Z" fill="#F3EDE9"/>
<path d="M304.153 659.304C305.08 654.823 307.969 652.33 311.214 650.198C311.57 650.56 311.748 650.74 312.286 650.923C311.561 651.995 310.835 653.067 310.11 654.139C309.383 655.57 308.477 656.821 307.749 658.251C307.022 659.682 305.764 659.853 304.153 659.304Z" fill="#F3EDE9"/>
<path d="M451.15 524.965C451.695 524.071 451.88 523.175 452.424 522.281C454.053 520.318 455.503 518.174 457.31 516.391C457.852 515.856 459.109 515.685 460.008 515.512C460.186 515.693 460.543 516.054 460.54 516.413C459.637 517.304 459.09 518.557 458.009 519.267C456.385 520.513 454.583 521.578 454.026 524.266C454.022 524.984 452.405 525.153 451.504 525.685C451.866 525.329 451.509 524.967 451.15 524.965Z" fill="#F3EDE9"/>
<path d="M289.433 419.243C289.948 422.656 284.166 428.361 280.943 427.262C283.478 424.049 286.188 421.375 289.433 419.243Z" fill="#F3EDE9"/>
<path d="M93.4906 705.989C93.3099 706.168 92.7703 706.344 91.8718 706.517C91.5152 706.156 90.6215 705.611 89.7277 705.067C89.7326 704.349 89.7374 703.631 89.7422 702.913C89.7591 700.401 90.4794 700.046 93.1702 700.244C94.7842 700.434 95.1407 700.796 94.5915 702.407C94.2253 703.482 93.8592 704.556 93.4906 705.989Z" fill="#F3EDE9"/>
<path d="M89.6964 709.733C89.5133 710.27 89.3327 710.448 88.9713 710.805C88.61 711.161 88.251 711.159 87.7114 711.335C87.7138 710.976 87.5379 710.436 87.721 709.899C88.0848 709.184 88.4485 708.468 89.1712 707.755C89.8843 708.478 90.2408 708.839 90.7756 709.381C90.9563 709.203 90.9563 709.203 91.137 709.025C90.4239 708.302 90.0699 707.582 89.3568 706.859C89.5375 706.681 89.5398 706.322 89.5398 706.322C90.7901 707.228 93.1172 708.141 92.9342 708.678C92.9245 710.114 91.8404 711.183 91.2936 712.436C91.1153 712.255 90.7563 712.253 90.7563 712.253C90.5805 711.713 90.0481 710.812 89.6964 709.733Z" fill="#F3EDE9"/>
<path d="M552.23 413.111C552.765 413.653 553.837 414.378 555.087 415.284C552.75 415.806 550.594 416.151 548.616 416.676C548.438 416.495 548.438 416.495 548.26 416.315C549.522 415.426 550.787 414.178 552.23 413.111Z" fill="#F3EDE9"/>
<path d="M622.352 341.073C621.092 341.603 621.075 344.115 619.292 342.308C618.936 341.947 618.767 340.331 619.309 339.796C620.034 338.724 621.104 339.808 622.352 341.073Z" fill="#F3EDE9"/>
<path d="M602.487 359.246C602.673 358.35 603.037 357.634 603.403 356.56C604.299 356.746 604.836 356.929 605.732 357.114C606.253 359.81 604.993 360.34 602.487 359.246Z" fill="#F3EDE9"/>
<path d="M300.839 404.423C300.116 405.136 299.391 406.208 298.669 406.921C298.488 407.099 297.592 406.914 297.235 406.552C296.879 406.191 296.884 405.473 297.064 405.295C297.965 404.762 299.225 404.232 300.126 403.7C300.304 403.881 300.483 404.061 300.839 404.423Z" fill="#F3EDE9"/>
<path d="M149.575 559.373C148.853 560.086 148.308 560.98 147.585 561.693C147.405 561.871 146.509 561.686 146.152 561.325C145.974 561.144 145.8 560.245 145.981 560.067C146.882 559.535 147.961 559.183 148.862 558.651C149.399 558.834 149.397 559.193 149.575 559.373Z" fill="#F3EDE9"/>
<path d="M610.261 350.863C610.446 349.967 610.629 349.429 610.815 348.533C610.996 348.355 611.174 348.536 611.354 348.357C611.706 349.437 612.058 350.516 612.588 351.776C611.692 351.59 610.796 351.405 609.899 351.219C609.899 351.219 610.08 351.041 610.261 350.863Z" fill="#F3EDE9"/>
<path d="M257.402 458.333C258.664 457.444 259.568 456.553 260.83 455.664C261.008 455.845 261.365 456.206 261.543 456.387C260.281 457.276 259.199 457.986 258.115 459.056C257.937 458.875 257.759 458.695 257.402 458.333Z" fill="#F3EDE9"/>
</svg>
