<svg width="30" height="30" viewBox="0 0 30 30" fill="none" xmlns="http://www.w3.org/2000/svg">
<path d="M21.2062 22.9688H19.6977V21.673C19.6977 21.2765 19.3704 20.9547 18.9669 20.9547H11.0389C10.6355 20.9547 10.3081 21.2765 10.3081 21.673V22.9689H8.79966C8.39624 22.9689 8.06883 23.2907 8.06883 23.6872V26.2817C8.06883 26.6782 8.39624 27 8.79966 27H21.2062C21.6096 27 21.937 26.6782 21.937 26.2817V23.6872C21.937 23.2906 21.6096 22.9688 21.2062 22.9688ZM24.8457 3H5.16013C3.41491 3 2.00003 4.39064 2.00003 6.10595C2.00003 9.24062 4.58716 11.7834 7.7765 11.7834H7.83497C9.05691 13.5131 10.7349 14.7916 12.6526 15.372V20.0899H17.3474V15.3749C19.2651 14.7916 20.9431 13.513 22.1651 11.7863H22.2235C25.4129 11.7863 28 9.24347 28 6.10879C28.0058 4.39064 26.591 3 24.8457 3ZM4.93212 8.90159C4.17205 8.15455 3.75402 7.16042 3.75402 6.10595C3.75402 5.34454 4.38546 4.72393 5.16013 4.72393H5.72726C5.72726 4.79289 5.72433 4.85897 5.72433 4.92793C5.72433 6.73805 6.10729 8.44187 6.78257 9.93882C6.08975 9.76642 5.45247 9.41302 4.93212 8.90159ZM25.0738 8.90159C24.5534 9.41302 23.9161 9.76642 23.2233 9.93882C23.8986 8.44187 24.2815 6.73518 24.2815 4.92793C24.2815 4.85897 24.2815 4.79289 24.2786 4.72393H24.8457C25.6204 4.72393 26.2518 5.34454 26.2518 6.10595C26.2518 7.16329 25.8338 8.15455 25.0738 8.90159Z" fill="#FFD700"/>
<path d="M13.1016 8.33594C13.013 8.22135 12.9766 8.09375 12.9922 7.95312C13.013 7.8125 13.0807 7.69531 13.1953 7.60156L14.7344 6.40625C14.849 6.30208 14.9792 6.25 15.125 6.25C15.2656 6.25521 15.3854 6.30729 15.4844 6.40625C15.5833 6.5 15.6354 6.61719 15.6406 6.75781V10.5859C15.6094 10.8984 15.4375 11.0677 15.125 11.0938C14.9792 11.0938 14.8516 11.0469 14.7422 10.9531C14.638 10.8542 14.5859 10.7318 14.5859 10.5859V7.85156L13.8359 8.42969C13.7214 8.51823 13.5938 8.55208 13.4531 8.53125C13.3073 8.51562 13.1901 8.45052 13.1016 8.33594Z" fill="white"/>
</svg>
