<svg width="30" height="30" viewBox="0 0 30 30" fill="none" xmlns="http://www.w3.org/2000/svg">
<path d="M21.2062 22.9688H19.6977V21.673C19.6977 21.2765 19.3704 20.9547 18.9669 20.9547H11.0389C10.6355 20.9547 10.3081 21.2765 10.3081 21.673V22.9689H8.79966C8.39624 22.9689 8.06883 23.2907 8.06883 23.6872V26.2817C8.06883 26.6782 8.39624 27 8.79966 27H21.2062C21.6096 27 21.937 26.6782 21.937 26.2817V23.6872C21.937 23.2906 21.6096 22.9688 21.2062 22.9688ZM24.8457 3H5.16013C3.41491 3 2.00003 4.39064 2.00003 6.10595C2.00003 9.24062 4.58716 11.7834 7.7765 11.7834H7.83497C9.05691 13.5131 10.7349 14.7916 12.6526 15.372V20.0899H17.3474V15.3749C19.2651 14.7916 20.9431 13.513 22.1651 11.7863H22.2235C25.4129 11.7863 28 9.24347 28 6.10879C28.0058 4.39064 26.591 3 24.8457 3ZM4.93212 8.90159C4.17205 8.15455 3.75402 7.16042 3.75402 6.10595C3.75402 5.34454 4.38546 4.72393 5.16013 4.72393H5.72726C5.72726 4.79289 5.72433 4.85897 5.72433 4.92793C5.72433 6.73805 6.10729 8.44187 6.78257 9.93882C6.08975 9.76642 5.45247 9.41302 4.93212 8.90159ZM25.0738 8.90159C24.5534 9.41302 23.9161 9.76642 23.2233 9.93882C23.8986 8.44187 24.2815 6.73518 24.2815 4.92793C24.2815 4.85897 24.2815 4.79289 24.2786 4.72393H24.8457C25.6204 4.72393 26.2518 5.34454 26.2518 6.10595C26.2518 7.16329 25.8338 8.15455 25.0738 8.90159Z" fill="#C0C0C0"/>
<path d="M12.5469 6.89844C12.5469 6.7526 12.5964 6.63021 12.6953 6.53125C12.7995 6.42708 12.9245 6.375 13.0703 6.375H16.0859C16.1172 6.375 16.1484 6.3776 16.1797 6.38281H16.2266C16.5911 6.39323 16.8906 6.47656 17.125 6.63281C17.3594 6.78906 17.5286 6.96875 17.6328 7.17188C17.737 7.36979 17.7891 7.57031 17.7891 7.77344C17.7891 7.98177 17.737 8.1875 17.6328 8.39062C17.5339 8.58854 17.3646 8.76562 17.125 8.92188C16.8906 9.07812 16.5911 9.16146 16.2266 9.17188H14.0078C13.9089 9.17708 13.8255 9.20052 13.7578 9.24219C13.6953 9.28385 13.6484 9.33854 13.6172 9.40625C13.5859 9.46875 13.5703 9.51823 13.5703 9.55469V9.71875C13.5703 9.78646 13.5859 9.83854 13.6172 9.875C13.6536 9.91146 13.7214 9.92708 13.8203 9.92188H17.2266C17.3724 9.92188 17.4948 9.97396 17.5938 10.0781C17.6979 10.1771 17.75 10.2995 17.75 10.4453C17.75 10.5911 17.6979 10.7161 17.5938 10.8203C17.4948 10.9193 17.3724 10.9688 17.2266 10.9688H13.3984C13.1068 10.9688 12.8828 10.8984 12.7266 10.7578C12.5755 10.612 12.4974 10.4062 12.4922 10.1406V9.55469C12.4922 9.34115 12.5417 9.13281 12.6406 8.92969C12.7448 8.72135 12.9141 8.53906 13.1484 8.38281C13.388 8.22135 13.6901 8.13542 14.0547 8.125H16.2734C16.3724 8.11979 16.4531 8.09896 16.5156 8.0625C16.5833 8.02083 16.6328 7.97656 16.6641 7.92969C16.6953 7.8776 16.7109 7.82552 16.7109 7.77344C16.7109 7.72135 16.6953 7.67188 16.6641 7.625C16.6328 7.57292 16.5833 7.52865 16.5156 7.49219C16.4531 7.45052 16.3724 7.42708 16.2734 7.42188H13.0703C12.9245 7.42188 12.8021 7.36979 12.7031 7.26562C12.599 7.16667 12.5469 7.04427 12.5469 6.89844Z" fill="white"/>
</svg>
