<svg width="30" height="30" viewBox="0 0 30 30" fill="none" xmlns="http://www.w3.org/2000/svg">
<path d="M21.2062 22.9688H19.6977V21.673C19.6977 21.2765 19.3703 20.9547 18.9669 20.9547H11.0389C10.6354 20.9547 10.3081 21.2765 10.3081 21.673V22.9689H8.79963C8.39622 22.9689 8.06881 23.2907 8.06881 23.6872V26.2817C8.06881 26.6782 8.39622 27 8.79963 27H21.2062C21.6096 27 21.937 26.6782 21.937 26.2817V23.6872C21.937 23.2906 21.6096 22.9688 21.2062 22.9688ZM24.8457 3H5.16011C3.41489 3 2 4.39064 2 6.10595C2 9.24062 4.58714 11.7834 7.77647 11.7834H7.83494C9.05689 13.5131 10.7349 14.7916 12.6526 15.372V20.0899H17.3474V15.3749C19.2651 14.7916 20.9431 13.513 22.165 11.7863H22.2235C25.4128 11.7863 28 9.24347 28 6.10879C28.0058 4.39064 26.5909 3 24.8457 3ZM4.93209 8.90159C4.17202 8.15455 3.75399 7.16042 3.75399 6.10595C3.75399 5.34454 4.38543 4.72393 5.16011 4.72393H5.72723C5.72723 4.79289 5.72431 4.85897 5.72431 4.92793C5.72431 6.73805 6.10726 8.44187 6.78255 9.93882C6.08972 9.76642 5.45244 9.41302 4.93209 8.90159ZM25.0737 8.90159C24.5534 9.41302 23.9161 9.76642 23.2233 9.93882C23.8986 8.44187 24.2815 6.73518 24.2815 4.92793C24.2815 4.85897 24.2815 4.79289 24.2786 4.72393H24.8457C25.6204 4.72393 26.2518 5.34454 26.2518 6.10595C26.2518 7.16329 25.8338 8.15455 25.0737 8.90159Z" fill="#CD7F32"/>
<path d="M12.5469 10.4453C12.5469 10.2995 12.599 10.1771 12.7031 10.0781C12.8021 9.97396 12.9245 9.92188 13.0703 9.92188H16.2266C16.3255 9.91667 16.4062 9.89323 16.4688 9.85156C16.5365 9.8099 16.5859 9.76302 16.6172 9.71094C16.6484 9.65885 16.6641 9.60417 16.6641 9.54688C16.6641 9.48958 16.6484 9.4349 16.6172 9.38281C16.5859 9.33073 16.5365 9.28385 16.4688 9.24219C16.4062 9.20052 16.3255 9.17708 16.2266 9.17188H13.0859C12.9401 9.17188 12.8177 9.11979 12.7188 9.01562C12.6146 8.91667 12.5625 8.79427 12.5625 8.64844C12.5625 8.5026 12.612 8.38021 12.7109 8.28125C12.8151 8.17708 12.9401 8.125 13.0859 8.125H16.1797C16.1849 8.125 16.1901 8.125 16.1953 8.125C16.2943 8.11979 16.375 8.09896 16.4375 8.0625C16.5052 8.02083 16.5547 7.97396 16.5859 7.92188C16.6172 7.86979 16.6328 7.8151 16.6328 7.75781C16.6328 7.70573 16.6172 7.65365 16.5859 7.60156C16.5547 7.54948 16.5052 7.50521 16.4375 7.46875C16.375 7.42708 16.2943 7.40365 16.1953 7.39844H13.0547C12.9089 7.39844 12.7865 7.34635 12.6875 7.24219C12.5833 7.14844 12.5312 7.02865 12.5312 6.88281C12.5312 6.74219 12.5807 6.6224 12.6797 6.52344C12.7839 6.42448 12.9089 6.375 13.0547 6.375H16.1484C16.513 6.38021 16.8125 6.46094 17.0469 6.61719C17.2865 6.76823 17.4557 6.94531 17.5547 7.14844C17.6589 7.35156 17.7109 7.55469 17.7109 7.75781C17.7109 7.96094 17.6589 8.16146 17.5547 8.35938C17.5078 8.45312 17.4479 8.53906 17.375 8.61719C17.4635 8.71094 17.5365 8.8099 17.5938 8.91406C17.6927 9.1224 17.7422 9.33333 17.7422 9.54688C17.7422 9.75 17.6901 9.95573 17.5859 10.1641C17.4818 10.3672 17.3125 10.5495 17.0781 10.7109C16.8438 10.8672 16.5443 10.9505 16.1797 10.9609H16.1328C16.1016 10.9661 16.0703 10.9688 16.0391 10.9688H13.0703C12.9245 10.9688 12.7995 10.9193 12.6953 10.8203C12.5964 10.7161 12.5469 10.5911 12.5469 10.4453Z" fill="white"/>
</svg>
