<svg width="84" height="56" viewBox="0 0 84 56" fill="none" xmlns="http://www.w3.org/2000/svg">
<circle opacity="0.5" cx="56" cy="28" r="28" fill="#FEC401"/>
<g clip-path="url(#clip0_145_5061)">
<path d="M53.3835 47.2852L44.3623 36.0092L45.8883 35.2461C45.9822 35.1992 46.0658 35.1343 46.1346 35.0551C46.2033 34.9758 46.2558 34.8838 46.2889 34.7843C46.3221 34.6848 46.3354 34.5797 46.3279 34.4751C46.3205 34.3705 46.2925 34.2683 46.2455 34.1745C46.0485 33.7799 45.5686 33.6204 45.174 33.8174L43.4791 34.6649L41.4265 30.5602C41.3882 30.4834 41.3377 30.4132 41.2769 30.3526L29.7158 18.7914L33.8921 14.6155C33.9663 14.5414 34.0251 14.4533 34.0652 14.3565C34.1054 14.2596 34.126 14.1557 34.126 14.0509C34.126 13.946 34.1054 13.8422 34.0652 13.7453C34.0251 13.6484 33.9663 13.5604 33.8921 13.4862L32.6495 12.2437L43.53 1.36316C43.6042 1.28902 43.663 1.201 43.7032 1.10412C43.7433 1.00724 43.764 0.903402 43.764 0.798537C43.764 0.693673 43.7433 0.589835 43.7032 0.492956C43.663 0.396076 43.6042 0.308052 43.53 0.233912C43.3802 0.0841703 43.1771 5.27129e-05 42.9653 5.27129e-05C42.7534 5.27129e-05 42.5503 0.0841703 42.4005 0.233912L41.7606 0.873684L41.2959 0.409411C41.2217 0.335279 41.1337 0.276483 41.0368 0.236383C40.9399 0.196283 40.8361 0.175664 40.7312 0.175703C40.6263 0.175742 40.5225 0.196439 40.4256 0.236612C40.3288 0.276784 40.2408 0.335645 40.1667 0.409833C40.0925 0.483974 40.0337 0.571998 39.9935 0.668877C39.9534 0.765757 39.9327 0.869594 39.9327 0.974459C39.9327 1.07932 39.9534 1.18316 39.9935 1.28004C40.0337 1.37692 40.0925 1.46494 40.1667 1.53908L40.6309 2.00336L26.7791 15.8548L12.9273 2.00336L13.3917 1.53908C13.4659 1.46499 13.5248 1.377 13.565 1.28013C13.6052 1.18326 13.6259 1.07942 13.6259 0.974546C13.626 0.86967 13.6053 0.765814 13.5652 0.668917C13.5251 0.572019 13.4663 0.48398 13.3921 0.409833C13.0802 0.0975407 12.5743 0.0979626 12.2624 0.409411L11.798 0.873684L11.1583 0.233912C11.0084 0.084138 10.8053 0 10.5934 0C10.3816 0 10.1784 0.084138 10.0286 0.233912C9.95444 0.308052 9.89561 0.396076 9.85547 0.492956C9.81534 0.589835 9.79468 0.693673 9.79468 0.798537C9.79468 0.903402 9.81534 1.00724 9.85547 1.10412C9.89561 1.201 9.95444 1.28902 10.0286 1.36316L20.9092 12.2437L19.6666 13.4862C19.5925 13.5604 19.5336 13.6484 19.4935 13.7453C19.4534 13.8422 19.4327 13.946 19.4327 14.0509C19.4327 14.1557 19.4534 14.2596 19.4935 14.3565C19.5336 14.4533 19.5925 14.5414 19.6666 14.6155L23.8426 18.7914L12.2813 30.3526C12.2207 30.4134 12.1702 30.4835 12.1317 30.5602L10.0796 34.6653L8.38434 33.8173C8.29052 33.7704 8.18838 33.7424 8.08375 33.735C7.97912 33.7276 7.87405 33.7408 7.77454 33.774C7.67503 33.8072 7.58303 33.8596 7.50379 33.9284C7.42456 33.9971 7.35963 34.0808 7.31273 34.1746C7.26582 34.2684 7.23786 34.3706 7.23043 34.4752C7.223 34.5798 7.23625 34.6849 7.26943 34.7844C7.3026 34.8839 7.35505 34.9759 7.42378 35.0551C7.49252 35.1344 7.57618 35.1993 7.67 35.2462L9.19592 36.0092L6.54444 39.3232C6.41213 39.4886 6.35094 39.6998 6.37434 39.9103C6.39774 40.1209 6.50381 40.3135 6.66921 40.4458C7.00914 40.7177 7.52003 40.661 7.7915 40.3213L11.0602 36.2353C11.0948 36.192 11.1261 36.1435 11.1512 36.0936L13.5024 31.3904L24.9721 19.9211L25.6494 20.5988L14.0887 32.16C14.0145 32.2341 13.9556 32.3221 13.9154 32.419C13.8752 32.516 13.8546 32.6199 13.8547 32.7248V36.008L12.2817 37.5813C12.1984 37.6643 12.1345 37.7648 12.0947 37.8755L7.05607 51.8717L1.91574 47.6664L5.32618 43.4035C5.45699 43.2379 5.51697 43.0273 5.49302 42.8176C5.46906 42.608 5.36313 42.4163 5.19834 42.2845C5.03355 42.1528 4.82331 42.0915 4.61353 42.1142C4.40374 42.1369 4.21147 42.2417 4.07869 42.4057L0.175092 47.2851C0.0436846 47.4493 -0.0176506 47.6587 0.00440704 47.8678C0.0264647 48.0769 0.130134 48.2689 0.292901 48.402L6.91896 53.8233C7.33915 54.1674 7.99295 53.9852 8.17625 53.4756L13.5371 38.5844L15.218 36.9034C15.2922 36.8293 15.351 36.7412 15.3912 36.6443C15.4313 36.5474 15.452 36.4435 15.452 36.3386V33.2578C16.7448 33.9676 18.3944 33.7275 19.4347 32.6868C20.5132 31.6082 20.7267 29.8807 19.9319 28.5751L21.542 26.9651L24.135 27.4838C24.5729 27.5716 25.0088 27.2683 25.08 26.8275C25.1477 26.4093 24.8634 26.0006 24.4481 25.9174L22.8995 25.6076L26.7791 21.728L30.6588 25.6076L29.1105 25.9174C28.6949 26.0007 28.411 26.4093 28.4786 26.8276C28.5498 27.2688 28.9853 27.5707 29.4236 27.4838L32.0164 26.9651L33.6263 28.5751C32.8316 29.8808 33.0454 31.6086 34.1236 32.6868C35.1643 33.7275 36.8139 33.968 38.1063 33.2582V36.3386C38.1063 36.5504 38.1904 36.7534 38.3403 36.9034L40.0212 38.5844L45.382 53.476C45.5657 53.9852 46.2192 54.1674 46.6394 53.8233L53.2653 48.402C53.4281 48.2689 53.5319 48.077 53.554 47.8679C53.5762 47.6588 53.5149 47.4493 53.3835 47.2851V47.2852ZM18.8199 30.3151C18.8199 30.7844 18.637 31.2255 18.3053 31.5575C17.8419 32.0211 17.1452 32.1875 16.5215 31.9861L18.7339 29.7733C18.7899 29.9463 18.8199 30.128 18.8199 30.3151ZM31.5198 13.373L32.1976 14.0507L28.5865 17.6622L27.9088 16.9844L31.5198 13.373ZM35.2533 31.5572C34.7898 31.0942 34.6229 30.3971 34.8244 29.7733L37.0372 31.9861C36.4134 32.1879 35.7167 32.0211 35.2533 31.5572ZM46.5026 51.8718L41.4636 37.8754C41.424 37.765 41.3602 37.6645 41.2769 37.5813L39.7035 36.0083V32.7248C39.7035 32.513 39.6195 32.3099 39.4699 32.16L35.2546 27.9445L35.2533 27.9432L35.252 27.9421L21.3608 14.0511L22.0384 13.3734L40.0558 31.3904L42.4074 36.0936C42.4321 36.143 42.4634 36.192 42.4981 36.2353L51.6425 47.6663L46.5026 51.8718Z" fill="#333333"/>
</g>
<defs>
<clipPath id="clip0_145_5061">
<rect width="54" height="54" fill="white"/>
</clipPath>
</defs>
</svg>
