<svg width="84" height="56" viewBox="0 0 84 56" fill="none" xmlns="http://www.w3.org/2000/svg">
<circle opacity="0.5" cx="56" cy="28" r="28" fill="#FEC401"/>
<g clip-path="url(#clip0_145_5042)">
<mask id="mask0_145_5042" style="mask-type:luminance" maskUnits="userSpaceOnUse" x="0" y="0" width="54" height="54">
<path d="M0 0.000156403H53.9998V54H0V0.000156403Z" fill="white"/>
</mask>
<g mask="url(#mask0_145_5042)">
<path d="M38.9291 25.0652C41.049 27.4464 42.2201 30.5234 42.2198 33.7115V42.6278C42.2198 43.9462 41.1503 45.0156 39.8319 45.0156H14.1651C12.8468 45.0156 11.7773 43.9462 11.7773 42.6278V33.7115C11.7773 28.7155 14.6386 24.1614 19.1401 21.9929L21.494 20.8591C19.158 19.1579 17.6393 16.402 17.6393 13.2907V10.1509C17.6393 7.56695 18.6866 5.2266 20.3804 3.53278C22.0741 1.83896 24.4146 0.791658 26.9985 0.791658C32.1676 0.791658 36.3578 4.98192 36.3578 10.1509V13.2907C36.3578 16.402 34.8391 19.1579 32.5029 20.8591L34.857 21.9929C35.2926 22.2028 35.7134 22.4348 36.1173 22.688" stroke="#333333" stroke-width="1.5" stroke-miterlimit="10" stroke-linecap="round" stroke-linejoin="round"/>
<path d="M26.9989 17.8408C23.5802 17.8408 20.799 15.0595 20.799 11.6408C20.799 8.2221 23.5802 5.44069 26.9989 5.44069C30.4177 5.44069 33.1989 8.2221 33.1989 11.6408C33.1989 15.0595 30.4177 17.8408 26.9989 17.8408Z" stroke="#333333" stroke-width="1.5" stroke-miterlimit="10" stroke-linecap="round" stroke-linejoin="round"/>
<path d="M29.5077 11.6407C29.5077 10.2552 28.3846 9.13207 26.999 9.13207C25.6135 9.13207 24.4904 10.2552 24.4904 11.6407C24.4904 13.0263 25.6135 14.1494 26.999 14.1494C28.3846 14.1494 29.5077 13.0263 29.5077 11.6407Z" stroke="#333333" stroke-width="1.5" stroke-miterlimit="10" stroke-linecap="round" stroke-linejoin="round"/>
<path d="M26.999 42.7285C21.5449 42.7285 17.1077 38.2912 17.1077 32.8371C17.1077 27.383 21.5449 22.9457 26.999 22.9457C32.4532 22.9457 36.8904 27.383 36.8904 32.8371C36.8904 38.2912 32.4532 42.7285 26.999 42.7285Z" stroke="#333333" stroke-width="1.5" stroke-miterlimit="10" stroke-linecap="round" stroke-linejoin="round"/>
<path d="M26.9989 39.0371C23.5803 39.0371 20.799 36.2558 20.799 32.837C20.799 29.4184 23.5803 26.6371 26.9989 26.6371C30.4177 26.6371 33.199 29.4184 33.199 32.837C33.199 36.2558 30.4177 39.0371 26.9989 39.0371Z" stroke="#333333" stroke-width="1.5" stroke-miterlimit="10" stroke-linecap="round" stroke-linejoin="round"/>
<path d="M29.5077 32.837C29.5077 31.4515 28.3846 30.3284 26.999 30.3284C25.6135 30.3284 24.4904 31.4515 24.4904 32.837C24.4904 34.2225 25.6135 35.3457 26.999 35.3457C28.3846 35.3457 29.5077 34.2225 29.5077 32.837Z" stroke="#333333" stroke-width="1.5" stroke-miterlimit="10" stroke-linecap="round" stroke-linejoin="round"/>
</g>
</g>
<defs>
<clipPath id="clip0_145_5042">
<rect width="54" height="54" fill="white"/>
</clipPath>
</defs>
</svg>
