<svg width="84" height="56" viewBox="0 0 84 56" fill="none" xmlns="http://www.w3.org/2000/svg">
<circle opacity="0.5" cx="56" cy="28" r="28" fill="#FEC401"/>
<g clip-path="url(#clip0_145_5034)">
<path d="M55.6518 5.51709L54.5676 4.08982C54.432 3.91027 54.2621 3.7594 54.0678 3.64595C53.8735 3.53249 53.6586 3.45871 53.4356 3.42886C53.2127 3.39773 52.9859 3.41116 52.7682 3.46835C52.5506 3.52554 52.3464 3.62537 52.1676 3.76204L40.8999 12.3212L39.2991 10.2138L40.8167 9.06095L41.2052 9.15407C41.557 9.23905 41.9234 9.24452 42.2777 9.17007C42.6319 9.09562 42.9651 8.94312 43.2529 8.72369L45.6978 6.86659C46.4229 6.31551 46.5648 5.27724 46.0139 4.55197L43.3668 1.06713C42.816 0.341853 41.7776 0.199865 41.0521 0.750828L38.6075 2.60793C38.3188 2.82636 38.0826 3.10641 37.9158 3.42769C37.7491 3.74897 37.6561 4.10339 37.6437 4.46514L37.6292 4.8643L34.3095 7.38589C34.1393 7.52019 34.0286 7.71595 34.0012 7.93106C33.9738 8.14617 34.0319 8.36345 34.163 8.53614C34.2942 8.70883 34.4879 8.82314 34.7025 8.85448C34.917 8.88582 35.1353 8.83168 35.3104 8.70372L38.9423 5.94493C39.0399 5.87084 39.1199 5.77597 39.1763 5.66719C39.2328 5.55841 39.2644 5.43845 39.2688 5.31597L39.2974 4.52505C39.3015 4.4083 39.3315 4.29391 39.3853 4.19022C39.4391 4.08653 39.5153 3.99615 39.6085 3.92565L42.049 2.068L44.6968 5.54875L42.252 7.40575C42.159 7.47653 42.0515 7.52572 41.9372 7.54975C41.8229 7.57378 41.7047 7.57203 41.5911 7.54464L40.8214 7.36018C40.7022 7.33157 40.5782 7.3298 40.4583 7.35501C40.3383 7.38021 40.2255 7.43176 40.128 7.50592L25.1951 18.8492L24.0094 17.2882L32.4764 10.8566C32.5629 10.7909 32.6356 10.7087 32.6904 10.6149C32.7452 10.5211 32.781 10.4173 32.7957 10.3097C32.8104 10.202 32.8038 10.0925 32.7761 9.9874C32.7485 9.8823 32.7005 9.78367 32.6348 9.69714C32.569 9.61061 32.4869 9.53787 32.393 9.48309C32.2992 9.4283 32.1955 9.39253 32.0878 9.37782C31.9802 9.36312 31.8706 9.36976 31.7656 9.39738C31.6605 9.42499 31.5618 9.47304 31.4753 9.53877L19.6176 18.5461L19.6174 18.5463L19.6173 18.5464L17.1686 20.4066L15.88 20.1959C15.7691 20.1778 15.6557 20.1825 15.5467 20.2096C15.4377 20.2367 15.3354 20.2858 15.2459 20.3537L13.1539 21.9428C12.8261 22.1918 12.6148 22.5536 12.5591 22.9615C12.5034 23.3693 12.6097 23.7745 12.8588 24.1023L15.6399 27.7635C15.9427 28.1622 16.4032 28.3719 16.869 28.3719C17.1939 28.3719 17.5214 28.2698 17.7995 28.0586L19.8915 26.4695C19.9809 26.4015 20.0556 26.3161 20.1109 26.2184C20.1663 26.1207 20.2011 26.0127 20.2134 25.9011L20.3562 24.6032L26.1628 20.1924L27.7635 22.2997L22.3852 26.3853C20.8651 27.5418 19.7957 29.192 19.3609 31.0518L18.9997 32.6028C18.9765 32.7029 18.8431 32.819 18.7312 32.8468C17.8776 32.6912 17.0009 32.7151 16.157 32.9168C15.3131 33.1185 14.5205 33.4937 13.8295 34.0185L0.76576 43.9417C0.0332016 44.4981 -0.20819 45.5033 0.191959 46.3317L1.0087 48.0228C2.71189 51.5494 5.8235 54.2713 9.54532 55.4906C9.74159 55.5549 9.94293 55.5857 10.1423 55.5857C10.8174 55.5857 11.4692 55.2322 11.8234 54.6291L17.1756 45.5179C17.2832 45.3288 17.3121 45.105 17.2559 44.8949C17.1998 44.6847 17.0631 44.5051 16.8756 44.395C16.688 44.2848 16.4646 44.2529 16.2537 44.3061C16.0428 44.3594 15.8614 44.4936 15.7487 44.6796L10.3965 53.7908C10.3631 53.8469 10.3117 53.8901 10.2507 53.9131C10.1896 53.9362 10.1225 53.9378 10.0604 53.9178C6.76358 52.8378 4.00744 50.4268 2.49875 47.3029L1.68201 45.6119C1.65345 45.5523 1.64627 45.4847 1.66168 45.4205C1.67709 45.3562 1.71415 45.2993 1.76663 45.2592L14.8303 35.3357C15.3502 34.941 15.9481 34.6615 16.5844 34.5158C17.2207 34.3701 17.8807 34.3617 18.5205 34.491C18.5744 34.5019 18.6294 34.5074 18.6844 34.5074C19.5652 34.5074 20.4116 33.8355 20.6114 32.9778L20.9726 31.4268C21.3194 29.9425 22.1728 28.6256 23.3859 27.7027L37.7104 16.8215L39.6835 19.419L24.0423 31.3008C23.9141 31.3981 23.8172 31.5307 23.7632 31.6822C23.7093 31.8338 23.7007 31.9978 23.7385 32.1542L24.639 35.8787C24.6955 36.11 24.6767 36.3533 24.5852 36.5732C24.4937 36.793 24.3343 36.9779 24.1303 37.1007L22.9606 37.8095C22.8031 37.9051 22.6244 37.9603 22.4403 37.9703C22.2563 37.9803 22.0727 37.9446 21.9057 37.8666L21.396 37.6286C21.073 37.4764 20.7047 37.4508 20.3638 37.5569C20.0229 37.6629 19.7341 37.8928 19.5543 38.2013L17.5942 41.5381C17.4866 41.7271 17.4577 41.951 17.5139 42.1611C17.57 42.3713 17.7067 42.5508 17.8942 42.661C18.0818 42.7712 18.3052 42.8031 18.5161 42.7498C18.727 42.6966 18.9084 42.5624 19.0211 42.3764L20.8791 39.2136L21.2059 39.3661C21.6193 39.5595 22.0741 39.6478 22.5299 39.6232C22.9856 39.5985 23.4283 39.4617 23.8184 39.2248L24.9881 38.5161C26.0269 37.8867 26.5331 36.6705 26.2477 35.4898L25.9427 34.2285C26.5024 34.5321 27.1289 34.6912 27.7656 34.6913C28.5948 34.6922 29.4013 34.4206 30.061 33.9184C31.7304 32.6503 32.0568 30.2605 30.7888 28.5909L30.6267 28.3774L40.7516 20.6862C40.9163 20.5619 41.0547 20.4061 41.1588 20.2278C41.2628 20.0496 41.3305 19.8525 41.3579 19.648C41.4045 19.3096 41.3387 18.9653 41.1704 18.6681L46.5834 14.5564C46.7537 14.4221 46.8644 14.2263 46.8918 14.0112C46.9192 13.7961 46.8611 13.5788 46.7299 13.4061C46.5988 13.2334 46.4051 13.1191 46.1905 13.0878C45.9759 13.0564 45.7576 13.1106 45.5826 13.2385L40.1828 17.3402L39.0286 15.8207L53.1687 5.07965C53.1734 5.07601 53.1875 5.06454 53.2115 5.0684C53.2354 5.0716 53.2462 5.08605 53.2498 5.09079L54.334 6.51807C54.3534 6.54344 54.3483 6.57996 54.3228 6.59927L48.4166 11.0859C48.2451 11.2198 48.1332 11.4158 48.1052 11.6316C48.0772 11.8473 48.1353 12.0655 48.2669 12.2387C48.3985 12.412 48.5931 12.5264 48.8084 12.5573C49.0238 12.5882 49.2427 12.533 49.4177 12.4037L55.3239 7.9171C56.0759 7.34573 56.223 6.26907 55.6518 5.51709ZM29.4709 29.5919C30.187 30.5347 30.0027 31.8843 29.0599 32.6006C28.1171 33.3168 26.7673 33.1323 26.0512 32.1896L25.8891 31.9762L27.1115 31.0476L27.5446 31.6177C27.6218 31.7194 27.7215 31.8019 27.836 31.8587C27.9504 31.9154 28.0764 31.9449 28.2042 31.9447C28.3582 31.9445 28.5091 31.9013 28.6399 31.8201C28.7707 31.7388 28.8763 31.6226 28.9447 31.4846C29.0131 31.3466 29.0416 31.1923 29.0271 31.039C29.0126 30.8856 28.9556 30.7394 28.8625 30.6167L28.4293 30.0466L29.3088 29.3785L29.4709 29.5919ZM23.8774 19.8502L22.4631 20.9245L21.2773 19.3635L22.6917 18.2892L23.8774 19.8502ZM19.9596 20.3645L21.1453 21.9255L19.7311 22.9999L18.5453 21.4389L19.9596 20.3645ZM16.889 26.6719L14.2455 23.1918L15.9639 21.8865L16.9267 22.0439L18.7141 24.3969L18.6074 25.3667L16.889 26.6719ZM27.4806 19.1912L37.9813 11.2147L39.5821 13.322L36.7775 15.4524L36.7764 15.4532L29.0812 21.2985L27.4806 19.1912Z" fill="#333333"/>
</g>
<defs>
<clipPath id="clip0_145_5034">
<rect width="56" height="56" fill="white"/>
</clipPath>
</defs>
</svg>
