<svg width="24" height="384" viewBox="0 0 24 384" fill="none" xmlns="http://www.w3.org/2000/svg">
<path d="M12 360L12 24" stroke="#333333" stroke-dasharray="8 8"/>
<path d="M12 360.5C18.3513 360.5 23.5 365.649 23.5 372C23.5 378.351 18.3513 383.5 12 383.5C5.64873 383.5 0.5 378.351 0.499999 372C0.499999 365.649 5.64872 360.5 12 360.5Z" stroke="#333333"/>
<ellipse cx="12" cy="372" rx="7" ry="7" transform="rotate(-90 12 372)" fill="#333333"/>
<path d="M12 180.5C18.3513 180.5 23.5 185.649 23.5 192C23.5 198.351 18.3513 203.5 12 203.5C5.64873 203.5 0.5 198.351 0.499999 192C0.499999 185.649 5.64872 180.5 12 180.5Z" stroke="#333333"/>
<ellipse cx="12" cy="192" rx="7" ry="7" transform="rotate(-90 12 192)" fill="#333333"/>
<path d="M12 0.500001C18.3513 0.500001 23.5 5.64873 23.5 12C23.5 18.3513 18.3513 23.5 12 23.5C5.64873 23.5 0.5 18.3513 0.499999 12C0.499999 5.64873 5.64872 0.500002 12 0.500001Z" stroke="#333333"/>
<ellipse cx="12" cy="12" rx="7" ry="7" transform="rotate(-90 12 12)" fill="#333333"/>
</svg>
