<svg width="30" height="30" viewBox="0 0 30 30" fill="none" xmlns="http://www.w3.org/2000/svg">
<path d="M11 5C11 4.4477 10.5523 4 10 4C9.4477 4 9 4.4477 9 5V6H7C5.8954 6 5 6.8954 5 8V21C5 22.1046 5.8954 23 7 23H12.0723C11.9001 22.7011 11.7454 22.3877 11.6098 22.0605C9.9203 17.98 11.8577 13.3009 15.9392 11.6102C18.3283 10.6206 20.9212 10.8744 23 12.073V8C23 6.8954 22.1046 6 21 6H19V5C19 4.4477 18.5523 4 18 4C17.4477 4 17 4.4477 17 5V6H11V5Z" fill="#333333"/>
<path d="M19 16C19.5523 16 20 16.4478 20 17V18.5855L21.2072 19.793C21.5977 20.1836 21.5976 20.8168 21.207 21.2072C20.8164 21.5977 20.1833 21.5976 19.7928 21.2071L18.2928 19.7067C18.1053 19.5191 18 19.2648 18 18.9997V17C18 16.4478 18.4477 16 19 16Z" fill="#333333"/>
<path fill-rule="evenodd" clip-rule="evenodd" d="M13 19C13 15.6863 15.6863 13 19 13C22.3137 13 25 15.6863 25 19C25 22.3137 22.3137 25 19 25C15.6863 25 13 22.3137 13 19ZM19 15C16.7909 15 15 16.7909 15 19C15 21.2091 16.7909 23 19 23C21.2091 23 23 21.2091 23 19C23 16.7909 21.2091 15 19 15Z" fill="#333333"/>
</svg>
