<svg width="24" height="24" viewBox="0 0 24 24" fill="none" xmlns="http://www.w3.org/2000/svg">
<g clip-path="url(#clip0_413_8671)">
<path d="M12.0037 6.86475C11.3298 6.86464 10.6625 6.9973 10.0398 7.25515C9.41715 7.513 8.8514 7.89099 8.37486 8.36753C7.89832 8.84407 7.52032 9.40983 7.26247 10.0325C7.00462 10.6551 6.87196 11.3225 6.87207 11.9964C6.87196 12.6703 7.00462 13.3377 7.26247 13.9603C7.52032 14.583 7.89832 15.1488 8.37486 15.6253C8.8514 16.1018 9.41715 16.4798 10.0398 16.7377C10.6625 16.9955 11.3298 17.1282 12.0037 17.1281C12.6777 17.1282 13.345 16.9955 13.9677 16.7377C14.5903 16.4798 15.1561 16.1018 15.6326 15.6253C16.1092 15.1488 16.4872 14.583 16.745 13.9603C17.0029 13.3377 17.1355 12.6703 17.1354 11.9964C17.1355 11.3225 17.0029 10.6551 16.745 10.0325C16.4872 9.40983 16.1092 8.84407 15.6326 8.36753C15.1561 7.89099 14.5903 7.513 13.9677 7.25515C13.345 6.9973 12.6777 6.86464 12.0037 6.86475ZM12.0037 15.3272C11.3452 15.3271 10.7015 15.1317 10.154 14.7657C9.60651 14.3997 9.17983 13.8796 8.92789 13.2712C8.67596 12.6628 8.61008 11.9933 8.7386 11.3474C8.86711 10.7015 9.18425 10.1082 9.64991 9.64258C10.1156 9.17692 10.7088 8.85979 11.3547 8.73127C12.0006 8.60276 12.6701 8.66863 13.2785 8.92057C13.887 9.1725 14.4071 9.59919 14.773 10.1467C15.139 10.6942 15.3344 11.3379 15.3346 11.9964C15.3348 12.4339 15.2488 12.8671 15.0815 13.2713C14.9142 13.6755 14.6688 14.0428 14.3595 14.3522C14.0501 14.6615 13.6829 14.9068 13.2787 15.0741C12.8744 15.2415 12.4412 15.3275 12.0037 15.3272Z" fill="#333333"/>
<path d="M16.1235 2.06331C14.2835 1.97748 9.72602 1.98164 7.88436 2.06331C6.26602 2.13914 4.83852 2.52998 3.68769 3.68081C1.76436 5.60414 2.01019 8.19581 2.01019 11.9966C2.01019 15.8866 1.79352 18.4183 3.68769 20.3125C5.61852 22.2425 8.24769 21.99 12.0035 21.99C15.8569 21.99 17.1869 21.9925 18.5494 21.465C20.4019 20.7458 21.8002 19.09 21.9369 16.1158C22.0235 14.275 22.0185 9.71831 21.9369 7.87664C21.7719 4.36581 19.8877 2.23664 16.1235 2.06331ZM19.036 19.04C17.7752 20.3008 16.026 20.1883 11.9794 20.1883C7.81269 20.1883 6.14186 20.25 4.92269 19.0275C3.51852 17.63 3.77269 15.3858 3.77269 11.9833C3.77269 7.37914 3.30019 4.06331 7.92102 3.82664C8.98269 3.78914 9.29519 3.77664 11.9677 3.77664L12.0052 3.80164C16.446 3.80164 19.9302 3.33664 20.1394 7.95664C20.1869 9.01081 20.1977 9.32748 20.1977 11.9958C20.1969 16.1141 20.2752 17.795 19.036 19.04Z" fill="#333333"/>
<path d="M17.3388 7.86171C18.0011 7.86171 18.538 7.32483 18.538 6.66255C18.538 6.00026 18.0011 5.46338 17.3388 5.46338C16.6765 5.46338 16.1396 6.00026 16.1396 6.66255C16.1396 7.32483 16.6765 7.86171 17.3388 7.86171Z" fill="#333333"/>
</g>
<defs>
<clipPath id="clip0_413_8671">
<rect width="20" height="20" fill="white" transform="translate(2 2)"/>
</clipPath>
</defs>
</svg>
