<svg width="30" height="30" viewBox="0 0 30 30" fill="none" xmlns="http://www.w3.org/2000/svg">
<path fill-rule="evenodd" clip-rule="evenodd" d="M6 7C6 5.3431 7.3431 4 9 4H20C21.6569 4 23 5.3431 23 7V14.8021C20.7054 13.4759 17.7205 13.7943 15.7574 15.7574C13.4935 18.0213 13.4169 21.6442 15.5276 24H9C7.3431 24 6 22.6569 6 21V7ZM10 9C10 8.4477 10.4477 8 11 8H18C18.5523 8 19 8.4477 19 9C19 9.5523 18.5523 10 18 10H11C10.4477 10 10 9.5523 10 9ZM10 13C10 12.4477 10.4477 12 11 12H14C14.5523 12 15 12.4477 15 13C15 13.5523 14.5523 14 14 14H11C10.4477 14 10 13.5523 10 13ZM10 17C10 16.4477 10.4477 16 11 16H12C12.5523 16 13 16.4477 13 17C13 17.5523 12.5523 18 12 18H11C10.4477 18 10 17.5523 10 17Z" fill="#333333"/>
<path fill-rule="evenodd" clip-rule="evenodd" d="M22.8284 17.1716C21.2663 15.6095 18.7337 15.6095 17.1716 17.1716C15.6095 18.7337 15.6095 21.2663 17.1716 22.8284C18.4895 24.1464 20.4983 24.3524 22.0322 23.4464L23.2929 24.7071C23.6834 25.0976 24.3166 25.0976 24.7071 24.7071C25.0976 24.3166 25.0976 23.6834 24.7071 23.2929L23.4464 22.0322C24.3524 20.4983 24.1464 18.4895 22.8284 17.1716ZM18.5858 21.4142C17.8047 20.6332 17.8047 19.3668 18.5858 18.5858C19.3668 17.8047 20.6332 17.8047 21.4142 18.5858C22.1953 19.3668 22.1953 20.6332 21.4142 21.4142C20.6332 22.1953 19.3668 22.1953 18.5858 21.4142Z" fill="#333333"/>
</svg>
