<svg width="30" height="30" viewBox="0 0 30 30" fill="none" xmlns="http://www.w3.org/2000/svg">
<path d="M14.5 5C12.0147 5 10 7.0147 10 9.5C10 11.9853 12.0147 14 14.5 14C16.9853 14 19 11.9853 19 9.5C19 7.0147 16.9853 5 14.5 5Z" fill="#333333"/>
<path d="M6.00441 22.9064C6.41671 18.5211 9.74221 15 14.5 15C15.9338 15 17.2376 15.3198 18.3707 15.8867C17.8325 16.4289 17.5 17.1756 17.5 18C15.8431 18 14.5 19.3431 14.5 21C14.5 22.6569 15.8431 24 17.5 24H7.00001C6.71851 24 6.45001 23.8814 6.26051 23.6732C6.07101 23.465 5.97801 23.1867 6.00441 22.9064Z" fill="#333333"/>
<path d="M21.5 18C21.5 17.4477 21.0523 17 20.5 17C19.9477 17 19.5 17.4477 19.5 18V20H17.5C16.9477 20 16.5 20.4477 16.5 21C16.5 21.5523 16.9477 22 17.5 22H19.5V24C19.5 24.5523 19.9477 25 20.5 25C21.0523 25 21.5 24.5523 21.5 24V22H23.5C24.0523 22 24.5 21.5523 24.5 21C24.5 20.4477 24.0523 20 23.5 20H21.5V18Z" fill="#333333"/>
</svg>
