<svg width="32" height="32" viewBox="0 0 32 32" fill="none" xmlns="http://www.w3.org/2000/svg">
<path d="M20.6977 12.5995H18.9919C18.8261 12.5995 18.6672 12.6653 18.55 12.7825C18.4327 12.8998 18.3669 13.0587 18.3669 13.2245C18.3669 13.3902 18.4327 13.5492 18.55 13.6664C18.6672 13.7836 18.8261 13.8495 18.9919 13.8495H20.6982C21.0427 13.8495 21.3232 14.1299 21.3232 14.4745V22.6478C21.3232 22.9924 21.0427 23.2728 20.6982 23.2728H11.3027C10.9582 23.2728 10.6777 22.9924 10.6777 22.6478V14.4745C10.6777 14.1299 10.9582 13.8495 11.3027 13.8495H13.009C13.1747 13.8495 13.3337 13.7836 13.4509 13.6664C13.5681 13.5492 13.634 13.3902 13.634 13.2245C13.634 13.0587 13.5681 12.8998 13.4509 12.7825C13.3337 12.6653 13.1747 12.5995 13.009 12.5995H11.3027C10.8056 12.6 10.329 12.7978 9.97752 13.1493C9.62601 13.5008 9.42829 13.9774 9.42773 14.4745V22.6478C9.42773 23.6816 10.269 24.5228 11.3027 24.5228H20.6982C21.7319 24.5228 22.5732 23.6816 22.5732 22.6478V14.4745C22.5725 13.9773 22.3747 13.5007 22.0231 13.1492C21.6715 12.7977 21.1949 12.6 20.6977 12.5995ZM13.6698 11.3378L15.3961 9.61157V17.8399C15.3961 17.922 15.4122 18.0033 15.4436 18.0791C15.4751 18.1549 15.5211 18.2238 15.5791 18.2818C15.6372 18.3399 15.7061 18.3859 15.7819 18.4173C15.8577 18.4487 15.939 18.4649 16.0211 18.4649C16.1031 18.4649 16.1844 18.4487 16.2602 18.4173C16.3361 18.3859 16.405 18.3399 16.463 18.2818C16.521 18.2238 16.5671 18.1549 16.5985 18.0791C16.6299 18.0033 16.6461 17.922 16.6461 17.8399V9.61157L18.3723 11.3378C18.4944 11.4599 18.6544 11.5207 18.8144 11.5207C18.9744 11.5207 19.1344 11.4599 19.2565 11.3378C19.3737 11.2206 19.4395 11.0617 19.4395 10.8959C19.4395 10.7302 19.3737 10.5713 19.2565 10.4541L16.4636 7.66074C16.4055 7.60266 16.3366 7.55659 16.2608 7.52515C16.1849 7.49372 16.1036 7.47754 16.0215 7.47754C15.9394 7.47754 15.8581 7.49372 15.7822 7.52515C15.7064 7.55659 15.6374 7.60266 15.5794 7.66074L12.7861 10.4541C12.7264 10.5117 12.6788 10.5807 12.646 10.6569C12.6132 10.7332 12.596 10.8152 12.5953 10.8982C12.5946 10.9812 12.6104 11.0635 12.6418 11.1403C12.6732 11.2171 12.7196 11.2869 12.7783 11.3456C12.837 11.4043 12.9068 11.4507 12.9836 11.4821C13.0604 11.5135 13.1427 11.5293 13.2257 11.5286C13.3087 11.5279 13.3907 11.5106 13.4669 11.4779C13.5432 11.4451 13.6122 11.3975 13.6698 11.3378Z" fill="#437DD1"/>
</svg>
